<svg width="819" height="811" viewBox="0 0 819 811" fill="none" xmlns="http://www.w3.org/2000/svg">
<path d="M368.852 22.7309L362.273 45.5298L384.779 59.1853L431.132 152.566L443.302 151.965L469.296 171.227L470.784 201.332L467.226 207.288L469.284 248.922L520.025 340.16L569.987 337.691L597.871 356.217L599.266 436.411L656.919 537.581L723.535 534.288L746.295 553.068L746.196 615.999L818.401 751.765L744.4 787.529L699.669 795.241L688.613 672.139C678.474 648.883 650.015 616.13 617.292 671.17L623.624 799.277L675.964 799.328L613.883 810.033L417.443 797.911L257.046 761.536L29.2013 672.63L24.3758 652.964L24.167 570.785L1.43802 552.646L0.45649 532.789L21.159 509.934L16.6947 419.619C-9.30667 413.199 4.02438 379.793 13.9401 363.893L11.882 322.258L5.8316 316.778L5.4833 309.732L14.0076 300.322L12.8361 276.621L9.2857 269.734L8.27249 249.237C63.9887 129.364 247.585 33.2199 332.419 0.131943L368.852 22.7309ZM700.038 799.352L675.964 799.328L699.669 795.241L700.038 799.352ZM556.734 667.1C544.286 649.095 513.279 624.559 488.837 670.456L494.853 792.158L563.098 795.848L556.734 667.1ZM428.626 673.433C417.085 656.453 389.34 634.667 370.687 683.36L375.119 773.035L434.136 784.886L428.626 673.433ZM324.734 676.001C314.269 663.462 289.93 649.982 276.299 696.373L277.195 753.476L329.198 766.316L324.734 676.001ZM229.096 689.718C224.596 680.951 212.255 671.159 198.889 702.126L200.092 726.467L231.503 738.397L229.096 689.718ZM55.0459 558.985C52.4519 558.472 47.0454 560.794 46.1667 574.192L49.6812 645.292L59.0353 639.692L55.0459 558.985ZM93.3594 541.681C90.4465 539.042 83.9322 538.037 81.1811 555.125L85.0123 632.63L97.4438 624.309L93.3594 541.681ZM151.529 523.395C147.166 517.404 135.777 513.9 125.125 547.815L128.386 613.791L153.019 605.511L151.529 523.395ZM225.743 504.959C219.972 496.468 205.865 487.32 195.599 518.648L196.741 593.717L227.17 585.792L225.743 504.959ZM319.528 479.775C309.843 465.7 286.393 448.537 270.073 492.493L274.253 577.044L323.897 568.169L319.528 479.775ZM426.695 465.488C411.748 448.891 378.357 428.068 364.366 477.559L368.387 558.907L431.032 553.242L426.695 465.488ZM546.19 453.803C533.84 433.438 502.348 406.015 475.185 459.239L479.523 546.992L550.56 542.196L546.19 453.803ZM50.8083 408.301C48.2802 404.787 42.7215 403.179 40.7109 424.853L43.9088 489.547L54.4178 481.322L50.8083 408.301ZM87.6885 375.015C84.9021 374.94 78.4369 380.097 74.8638 401.333L76.2668 468.684L89.4649 462.895L87.6885 375.015ZM143.336 344.654C137.924 343.423 125.239 347.475 117.794 373.527L121.309 444.626L145.814 433.784L143.336 344.654ZM217.968 321.702C212.614 312.977 198.121 304.704 182.984 341.41L186.689 416.353L221.989 403.05L217.968 321.702ZM314.418 285.471C307.603 273.18 288.242 259.926 265.312 305.235L266.77 386.71L318.693 371.944L314.418 285.471ZM424.535 265.902C413.676 249.745 385.875 229.416 361.533 277.364L363.119 361.401L425.448 349.33L424.535 265.902Z" fill="#010101"/>
</svg>
