<svg width="1279" height="332" viewBox="0 0 1279 332" fill="none" xmlns="http://www.w3.org/2000/svg">
<g filter="url(#filter0_di_13_131)">
<path d="M16.7478 0L49.0028 148.948L0 315L250.597 262.262L318.828 315L614.086 262.262L746.207 301.459L869.024 253.71L931.053 280.079L1107.84 227.342L1236.86 237.319L1224.45 106.188L1236.86 0L1092.33 42.7602L1015.41 0L950.902 42.7602L898.798 25.6561L774.74 42.7602L590.515 0L431.721 42.7602L163.136 0L106.069 25.6561L16.7478 0Z" fill="url(#paint0_linear_13_131)"/>
<path d="M1262.25 0L1230 148.948L1279 315L1028.4 262.262L960.172 315L664.914 262.262L532.793 301.459L409.976 253.71L347.947 280.079L171.165 227.342L42.1447 237.319L54.5505 106.188L42.1447 0L186.672 42.7602L263.588 0L328.098 42.7602L380.202 25.6561L504.26 42.7602L688.485 0L847.279 42.7602L1115.86 0L1172.93 25.6561L1262.25 0Z" fill="url(#paint1_linear_13_131)"/>
</g>
<defs>
<filter id="filter0_di_13_131" x="0" y="0" width="1279" height="332" filterUnits="userSpaceOnUse" color-interpolation-filters="sRGB">
<feFlood flood-opacity="0" result="BackgroundImageFix"/>
<feColorMatrix in="SourceAlpha" type="matrix" values="0 0 0 0 0 0 0 0 0 0 0 0 0 0 0 0 0 0 127 0" result="hardAlpha"/>
<feOffset dy="17"/>
<feComposite in2="hardAlpha" operator="out"/>
<feColorMatrix type="matrix" values="0 0 0 0 0 0 0 0 0 0 0 0 0 0 0 0 0 0 0.25 0"/>
<feBlend mode="normal" in2="BackgroundImageFix" result="effect1_dropShadow_13_131"/>
<feBlend mode="normal" in="SourceGraphic" in2="effect1_dropShadow_13_131" result="shape"/>
<feColorMatrix in="SourceAlpha" type="matrix" values="0 0 0 0 0 0 0 0 0 0 0 0 0 0 0 0 0 0 127 0" result="hardAlpha"/>
<feOffset dy="11"/>
<feGaussianBlur stdDeviation="10.45"/>
<feComposite in2="hardAlpha" operator="arithmetic" k2="-1" k3="1"/>
<feColorMatrix type="matrix" values="0 0 0 0 0 0 0 0 0 0 0 0 0 0 0 0 0 0 0.5 0"/>
<feBlend mode="normal" in2="shape" result="effect2_innerShadow_13_131"/>
</filter>
<linearGradient id="paint0_linear_13_131" x1="660.572" y1="0" x2="660.572" y2="315" gradientUnits="userSpaceOnUse">
<stop stop-color="#C69F8C"/>
<stop offset="1" stop-color="#5C5243"/>
</linearGradient>
<linearGradient id="paint1_linear_13_131" x1="660.572" y1="0" x2="660.572" y2="315" gradientUnits="userSpaceOnUse">
<stop stop-color="#C69F8C"/>
<stop offset="1" stop-color="#5C5243"/>
</linearGradient>
</defs>
</svg>
