<svg width="1920" height="893" viewBox="0 0 1920 893" fill="none" xmlns="http://www.w3.org/2000/svg">
<path d="M788.086 800.341C509.062 812.763 144.435 688.65 -3 625.041V893H1916V601L1840.06 608.012L1731.76 625.041L1593.24 647.58L1469.48 675.127L1349.23 702.173L1158.67 741.741L788.086 800.341Z" fill="black"/>
<path d="M520.636 45.2169L514.057 68.0158L536.563 81.6713L582.916 175.052L595.087 174.451L621.08 193.713L622.568 223.818L619.01 229.774L621.068 271.408L671.809 362.646L721.771 360.177L749.655 378.703L751.051 458.897L808.704 560.067L875.32 556.774L898.079 575.554L897.98 638.485L970.185 774.251L896.185 810.015L851.453 817.727L840.397 694.625C830.258 671.369 801.799 638.616 769.076 693.656L775.408 821.763L827.748 821.814L765.667 832.519L569.227 820.397L408.83 784.022L180.985 695.116L176.16 675.45L175.951 593.271L153.222 575.132L152.241 555.275L172.943 532.42L168.479 442.105C142.478 435.685 155.809 402.279 165.724 386.379L163.666 344.744L157.616 339.264L157.267 332.218L165.792 322.808L164.62 299.107L161.07 292.22L160.057 271.723C215.773 151.85 399.369 55.7059 484.203 22.618L520.636 45.2169ZM851.823 821.838L827.748 821.814L851.453 817.727L851.823 821.838ZM708.518 689.586C696.07 671.581 665.064 647.045 640.621 692.942L646.637 814.644L714.882 818.334L708.518 689.586ZM580.411 695.919C568.869 678.939 541.124 657.153 522.471 705.846L526.903 795.521L585.92 807.372L580.411 695.919ZM476.518 698.487C466.053 685.948 441.714 672.468 428.083 718.859L428.98 775.962L480.983 788.802L476.518 698.487ZM380.88 712.204C376.38 703.437 364.039 693.645 350.673 724.612L351.876 748.953L383.287 760.883L380.88 712.204ZM206.83 581.471C204.236 580.958 198.83 583.28 197.951 596.678L201.465 667.778L210.82 662.178L206.83 581.471ZM245.144 564.167C242.231 561.528 235.716 560.523 232.965 577.611L236.796 655.116L249.228 646.796L245.144 564.167ZM303.313 545.881C298.95 539.89 287.561 536.386 276.909 570.301L280.17 636.277L304.803 627.997L303.313 545.881ZM377.527 527.445C371.757 518.955 357.649 509.806 347.383 541.134L348.525 616.203L378.954 608.278L377.527 527.445ZM471.312 502.261C461.627 488.186 438.177 471.024 421.857 514.979L426.037 599.53L475.682 590.655L471.312 502.261ZM578.479 487.974C563.532 471.377 530.141 450.554 516.15 500.045L520.171 581.393L582.817 575.728L578.479 487.974ZM697.974 476.289C685.624 455.924 654.132 428.501 626.97 481.725L631.307 569.478L702.344 564.682L697.974 476.289ZM202.593 430.787C200.064 427.273 194.506 425.665 192.495 447.339L195.693 512.033L206.202 503.808L202.593 430.787ZM239.473 397.501C236.686 397.426 230.221 402.583 226.648 423.819L228.051 491.17L241.249 485.381L239.473 397.501ZM295.12 367.14C289.708 365.909 277.023 369.961 269.579 396.013L273.093 467.112L297.598 456.27L295.12 367.14ZM369.752 344.188C364.398 335.463 349.906 327.19 334.769 363.896L338.473 438.839L373.773 425.536L369.752 344.188ZM466.202 307.957C459.388 295.666 440.026 282.412 417.096 327.721L418.555 409.196L470.477 394.43L466.202 307.957ZM576.319 288.388C565.46 272.231 537.659 251.902 513.318 299.85L514.903 383.887L577.232 371.816L576.319 288.388Z" fill="#010101"/>
<path d="M520.852 44.7309L514.273 67.5298L536.779 81.1853L583.132 174.566L595.302 173.965L621.296 193.227L622.784 223.332L619.226 229.288L621.284 270.922L672.025 362.16L721.987 359.691L749.871 378.217L751.266 458.411L808.919 559.581L875.535 556.288L898.295 575.068L898.196 637.999L970.401 773.765L896.4 809.529L851.669 817.241L840.613 694.139C830.474 670.883 802.015 638.13 769.292 693.17L775.624 821.277L827.964 821.328L765.883 832.033L569.443 819.911L409.046 783.536L181.201 694.63L176.376 674.964L176.167 592.785L153.438 574.646L152.456 554.789L173.159 531.934L168.695 441.619C142.693 435.199 156.024 401.793 165.94 385.893L163.882 344.258L157.832 338.778L157.483 331.732L166.008 322.322L164.836 298.621L161.286 291.734L160.272 271.237C215.989 151.364 399.585 55.2199 484.419 22.132L520.852 44.7309ZM852.038 821.352L827.964 821.328L851.669 817.241L852.038 821.352ZM708.734 689.1C696.286 671.095 665.279 646.559 640.837 692.456L646.853 814.158L715.098 817.848L708.734 689.1ZM580.626 695.433C569.085 678.453 541.34 656.667 522.687 705.36L527.119 795.035L586.136 806.886L580.626 695.433ZM476.734 698.001C466.269 685.462 441.93 671.982 428.299 718.373L429.195 775.476L481.198 788.316L476.734 698.001ZM381.096 711.718C376.596 702.951 364.255 693.159 350.889 724.126L352.092 748.467L383.503 760.397L381.096 711.718ZM207.046 580.985C204.452 580.472 199.045 582.794 198.167 596.192L201.681 667.292L211.035 661.692L207.046 580.985ZM245.359 563.681C242.447 561.042 235.932 560.037 233.181 577.125L237.012 654.63L249.444 646.31L245.359 563.681ZM303.529 545.395C299.166 539.404 287.777 535.9 277.125 569.815L280.386 635.791L305.019 627.511L303.529 545.395ZM377.743 526.959C371.972 518.469 357.865 509.32 347.599 540.648L348.741 615.717L379.17 607.792L377.743 526.959ZM471.528 501.775C461.843 487.7 438.393 470.538 422.073 514.493L426.253 599.044L475.897 590.169L471.528 501.775ZM578.695 487.488C563.748 470.891 530.357 450.068 516.366 499.559L520.387 580.907L583.032 575.242L578.695 487.488ZM698.19 475.803C685.84 455.438 654.348 428.015 627.185 481.239L631.523 568.992L702.56 564.196L698.19 475.803ZM202.808 430.301C200.28 426.787 194.722 425.179 192.711 446.853L195.909 511.547L206.418 503.322L202.808 430.301ZM239.689 397.015C236.902 396.94 230.437 402.097 226.864 423.333L228.267 490.684L241.465 484.895L239.689 397.015ZM295.336 366.654C289.924 365.423 277.239 369.475 269.794 395.527L273.309 466.626L297.814 455.784L295.336 366.654ZM369.968 343.702C364.614 334.977 350.121 326.704 334.984 363.41L338.689 438.353L373.989 425.05L369.968 343.702ZM466.418 307.471C459.603 295.18 440.242 281.926 417.312 327.235L418.77 408.71L470.693 393.944L466.418 307.471ZM576.535 287.902C565.676 271.745 537.875 251.416 513.533 299.364L515.119 383.401L577.448 371.33L576.535 287.902Z" fill="#010101"/>
<path d="M1716.46 305.106C1731.58 293.707 1771.92 277.747 1812.37 305.106C1847.31 299.407 1919.57 293.657 1929.09 316.258V421.828H1905.3C1872.09 438.432 1802.55 487.55 1790.06 551.189L1804.19 634.456L1757.35 647.838V609.179C1747.93 581.175 1716.91 524.128 1668.14 519.965C1615.6 512.778 1503.83 494.538 1477.07 479.074L1466.66 474.613L1446.59 470.896L1429.49 464.205C1413.88 461.231 1395.44 450.079 1446.59 429.263C1450.8 420.837 1465.17 403.837 1488.96 403.242C1495.66 399.773 1510.08 389.562 1514.24 376.477C1528.62 365.573 1571.04 347.037 1625.76 360.122V339.306C1635.42 329.641 1667.1 309.27 1716.46 305.106ZM1704.57 421.086C1718.94 427.034 1739.06 441.456 1704.57 451.567L1680.78 476.101L1676.32 494.687L1677.8 503.609C1702.09 517.487 1753.04 549.851 1762.56 568.289C1763.79 534.09 1758.54 456.771 1727.61 421.086H1704.57ZM1773.71 417.368C1772.72 428.024 1767.61 452.013 1755.12 462.719C1762.31 477.092 1776.98 507.771 1778.17 515.504L1818.31 469.41L1790.81 417.368H1773.71ZM1596.77 467.18L1591.56 479.818V499.148L1651.78 505.096L1619.81 464.206L1596.77 467.18ZM1538.03 476.101L1544.72 490.971L1584.13 499.148L1568.51 473.128L1538.03 476.101ZM1651.78 457.515L1655.5 479.818L1661.45 499.148H1668.88L1672.6 476.101V457.515H1651.78ZM1504.58 479.818L1534.32 490.971L1530.6 479.818H1504.58ZM1574.46 470.153L1584.13 487.996L1587.84 467.18L1574.46 470.153ZM1627.99 460.489L1645.09 476.101V460.489H1627.99ZM1680.78 455.284V464.206L1690.44 455.284H1680.78ZM1820.54 417.368L1816.08 441.159L1828.72 464.206C1840.87 454.293 1864.26 431.048 1860.69 417.368H1820.54ZM1735.05 419.599L1751.4 449.337C1759.14 448.741 1765.53 429.263 1767.76 419.599H1735.05ZM1871.1 419.599L1854.74 444.133C1863.67 437.442 1881.51 423.167 1881.51 419.599H1871.1ZM1796.75 417.368L1810.14 434.468L1813.11 417.368H1796.75Z" fill="black"/>
<path d="M1260 710.5C1268 710.9 1274.67 718.333 1277 722L1320 710.5C1326.17 704.833 1338 693.4 1336 693C1334 692.6 1318.17 704.5 1310.5 710.5C1309.3 706.9 1324.67 686.667 1332.5 677C1326.1 677 1309.83 695 1302.5 704L1298.5 677L1295.5 704L1281 688.5C1287.4 697.3 1287.67 706.833 1287 710.5C1285 704.9 1268.17 699.167 1260 697C1273.2 701.4 1279.5 712.5 1281 717.5C1275.8 711.5 1264.83 710.333 1260 710.5Z" fill="black"/>
<path d="M1553 649.567C1558.88 649.86 1563.78 655.311 1565.49 658L1597.08 649.567C1601.61 645.411 1610.3 637.027 1608.83 636.733C1607.37 636.44 1595.73 645.167 1590.1 649.567C1589.22 646.927 1600.51 632.089 1606.26 625C1601.56 625 1589.61 638.2 1584.22 644.8L1581.28 625L1579.08 644.8L1568.43 633.433C1573.13 639.887 1573.33 646.878 1572.84 649.567C1571.37 645.46 1559 641.256 1553 639.667C1562.7 642.893 1567.33 651.033 1568.43 654.7C1564.61 650.3 1556.55 649.444 1553 649.567Z" fill="black"/>
<path d="M590 777.433C579.715 777.94 571.144 787.356 568.144 792L512.86 777.433C504.932 770.256 489.718 755.773 492.289 755.267C494.86 754.76 515.217 769.833 525.074 777.433C526.616 772.873 506.86 747.244 496.789 735C505.017 735 525.931 757.8 535.359 769.2L540.502 735L544.359 769.2L563.001 749.567C554.773 760.713 554.43 772.789 555.287 777.433C557.858 770.34 579.5 763.078 590 760.333C573.029 765.907 564.929 779.967 563.001 786.3C569.686 778.7 583.786 777.222 590 777.433Z" fill="black"/>
<path d="M167 671.433C156.715 671.94 148.144 681.356 145.144 686L89.8598 671.433C81.9315 664.256 66.7178 649.773 69.2891 649.267C71.8604 648.76 92.2169 663.833 102.074 671.433C103.616 666.873 83.86 641.244 73.7889 629C82.0172 629 102.931 651.8 112.359 663.2L117.502 629L121.359 663.2L140.001 643.567C131.773 654.713 131.43 666.789 132.287 671.433C134.858 664.34 156.5 657.078 167 654.333C150.029 659.907 141.929 673.967 140.001 680.3C146.686 672.7 160.786 671.222 167 671.433Z" fill="black"/>
</svg>
