<svg width="1919" height="292" viewBox="0 0 1919 292" fill="none" xmlns="http://www.w3.org/2000/svg">
<path d="M791.086 199.341C512.062 211.763 147.435 87.6501 0 24.0412V292H1919V0L1843.06 7.01201L1734.76 24.0412L1596.24 46.5798L1472.48 74.1269L1352.23 101.173L1161.67 140.741L791.086 199.341Z" fill="black"/>
<path d="M1263 109.5C1271 109.9 1277.67 117.333 1280 121L1323 109.5C1329.17 103.833 1341 92.4 1339 92C1337 91.6 1321.17 103.5 1313.5 109.5C1312.3 105.9 1327.67 85.6667 1335.5 76C1329.1 76 1312.83 94 1305.5 103L1301.5 76L1298.5 103L1284 87.5C1290.4 96.3 1290.67 105.833 1290 109.5C1288 103.9 1271.17 98.1667 1263 96C1276.2 100.4 1282.5 111.5 1284 116.5C1278.8 110.5 1267.83 109.333 1263 109.5Z" fill="black"/>
<path d="M1556 48.5667C1561.88 48.86 1566.78 54.3111 1568.49 57L1600.08 48.5667C1604.61 44.4111 1613.3 36.0267 1611.83 35.7333C1610.37 35.44 1598.73 44.1667 1593.1 48.5667C1592.22 45.9267 1603.51 31.0889 1609.26 24C1604.56 24 1592.61 37.2 1587.22 43.8L1584.28 24L1582.08 43.8L1571.43 32.4333C1576.13 38.8867 1576.33 45.8778 1575.84 48.5667C1574.37 44.46 1562 40.2556 1556 38.6667C1565.7 41.8933 1570.33 50.0333 1571.43 53.7C1567.61 49.3 1559.55 48.4445 1556 48.5667Z" fill="black"/>
<path d="M593 176.433C582.715 176.94 574.144 186.356 571.144 191L515.86 176.433C507.932 169.256 492.718 154.773 495.289 154.267C497.86 153.76 518.217 168.833 528.074 176.433C529.616 171.873 509.86 146.244 499.789 134C508.017 134 528.931 156.8 538.359 168.2L543.502 134L547.359 168.2L566.001 148.567C557.773 159.713 557.43 171.789 558.287 176.433C560.858 169.34 582.5 162.078 593 159.333C576.029 164.907 567.929 178.967 566.001 185.3C572.686 177.7 586.786 176.222 593 176.433Z" fill="black"/>
<path d="M170 70.4333C159.715 70.94 151.144 80.3556 148.144 85L92.8598 70.4333C84.9315 63.2556 69.7178 48.7733 72.2891 48.2667C74.8604 47.76 95.2169 62.8333 105.074 70.4333C106.616 65.8734 86.86 40.2445 76.7889 28C85.0172 28 105.931 50.8 115.359 62.2L120.502 28L124.359 62.2L143.001 42.5667C134.773 53.7133 134.43 65.7889 135.287 70.4333C137.858 63.34 159.5 56.0778 170 53.3333C153.029 58.9066 144.929 72.9667 143.001 79.3C149.686 71.7 163.786 70.2222 170 70.4333Z" fill="black"/>
</svg>
