<svg width="1123" height="257" viewBox="0 0 1123 257" fill="none" xmlns="http://www.w3.org/2000/svg">
<g filter="url(#filter0_d_1_188)">
<path d="M9.9 100.352C22.188 100.352 24.236 97.792 24.236 84.992V17.664C24.236 4.60805 22.188 2.04804 9.9 2.04804V4.57764e-05H59.308C88.748 4.57764e-05 112.556 8.70405 112.556 32.512C112.556 56.576 88.748 65.536 59.308 65.536H44.972V84.992C44.972 97.792 47.02 100.352 59.308 100.352H158.892C159.532 99.456 160.94 98.816 161.58 98.816C162.348 98.816 163.884 99.84 163.884 101.376C163.884 102.528 162.348 103.808 161.58 103.808C161.068 103.808 159.788 103.168 159.02 102.4H9.9V100.352ZM44.972 63.488H59.308C81.58 63.488 89.772 59.904 89.772 32.512C89.772 5.37605 81.58 2.04804 59.308 2.04804C47.02 2.04804 44.972 4.60805 44.972 17.664V63.488ZM166.316 101.376C166.316 99.584 167.34 98.048 172.46 98.048C177.708 98.048 178.604 99.584 178.604 101.376C178.604 103.04 177.708 104.448 172.46 104.448C167.34 104.448 166.316 103.04 166.316 101.376ZM181.42 101.376C181.42 99.84 182.828 98.816 183.596 98.816C184.236 98.816 186.028 99.456 186.54 100.608H226.092C235.948 99.712 239.532 94.976 239.532 90.24C239.532 84.352 235.18 80.64 228.78 80.64C222.252 80.64 218.54 85.12 218.54 89.088C218.54 93.056 221.356 96.3841 225.58 96.3841C229.804 96.3841 232.876 93.952 232.876 90.496C232.876 86.912 230.316 85.376 228.268 85.376C226.604 85.376 225.58 86.016 224.94 86.784C225.196 86.528 225.58 86.4 226.22 86.4C227.756 86.4 229.164 87.808 229.164 89.216C229.164 91.136 227.756 92.288 226.22 92.288C224.94 92.288 222.892 90.752 223.276 87.936C223.404 86.272 225.068 84.224 228.268 84.224C230.956 84.224 234.028 86.4 234.028 90.496C234.028 94.848 230.316 97.536 225.58 97.536C220.844 97.536 217.516 93.5681 217.516 89.088C217.516 83.584 222.252 79.488 228.78 79.488C235.82 79.488 240.812 83.84 240.812 90.24C240.812 94.3361 238.508 98.56 232.236 100.608H241.452C242.092 99.456 243.884 98.816 244.524 98.816C245.292 98.816 246.572 99.84 246.572 101.376C246.572 102.528 245.292 103.808 244.524 103.808C243.884 103.808 242.092 102.912 241.452 102.016H186.54C185.9 102.912 184.236 103.808 183.596 103.808C182.828 103.808 181.42 102.528 181.42 101.376ZM117.71 75.776C123.854 75.776 124.878 74.496 124.878 68.096V34.432C124.878 27.904 123.854 26.624 117.71 26.624V25.6H168.27V40.192H167.246C167.246 32.384 162.382 26.624 152.398 26.624H142.414C136.27 26.624 135.246 27.904 135.246 34.432V50.048H143.31C153.294 50.048 156.238 46.464 156.238 38.784H157.262V62.464H156.238C156.238 54.656 153.294 51.2 143.31 51.2H135.246V68.096C135.246 74.496 136.27 75.776 142.414 75.776H154.446C164.43 75.776 169.294 70.144 169.294 62.336H170.318V76.8H117.71V75.776ZM177.96 75.776C184.104 75.776 186.152 71.424 186.152 65.024V34.432C186.152 27.904 185.128 26.624 178.984 26.624V25.6H196.008L231.08 64.128V35.456C231.08 28.928 225.96 26.624 219.816 26.624V25.6H241.448V26.624C235.304 26.624 232.232 28.928 232.232 35.456V76.8H228.392L187.304 32.384V65.024C187.304 71.424 189.608 75.776 198.568 75.776V76.8H177.96V75.776ZM249.085 75.776C255.229 75.776 256.253 74.496 256.253 68.096V34.432C256.253 27.904 255.229 26.624 249.085 26.624V25.6H275.581C293.117 25.6 306.301 36.352 306.301 51.072C306.301 65.792 293.117 76.8 275.581 76.8H249.085V75.776ZM266.621 68.096C266.621 74.496 267.645 75.776 273.789 75.776H275.581C289.533 75.776 294.909 70.272 294.909 51.072C294.909 32 289.533 26.624 275.581 26.624H273.789C267.645 26.624 266.621 27.904 266.621 34.432V68.096ZM311.46 75.776C317.604 75.776 318.628 74.496 318.628 68.096V34.432C318.628 27.904 317.604 26.624 311.46 26.624V25.6H336.164V26.624C330.02 26.624 328.996 27.904 328.996 34.432V68.096C328.996 74.496 330.02 75.776 336.164 75.776V76.8H311.46V75.776ZM343.835 75.776C349.979 75.776 351.003 74.496 351.003 68.096V34.432C351.003 27.904 349.979 26.624 343.835 26.624V25.6H370.331C387.867 25.6 401.051 36.352 401.051 51.072C401.051 65.792 387.867 76.8 370.331 76.8H343.835V75.776ZM361.371 68.096C361.371 74.496 362.395 75.776 368.539 75.776H370.331C384.283 75.776 389.659 70.272 389.659 51.072C389.659 32 384.283 26.624 370.331 26.624H368.539C362.395 26.624 361.371 27.904 361.371 34.432V68.096ZM406.21 75.776C412.354 75.776 413.378 74.496 413.378 68.096V34.432C413.378 27.904 412.354 26.624 406.21 26.624V25.6H430.914V26.624C424.77 26.624 423.746 27.904 423.746 34.432V68.096C423.746 74.496 424.77 75.776 430.914 75.776V76.8H406.21V75.776ZM438.585 75.776C444.729 75.776 445.753 74.496 445.753 68.096V34.432C445.753 27.904 444.729 26.624 438.585 26.624V25.6H463.289V26.624C457.145 26.624 456.121 27.904 456.121 34.432V55.424L481.721 35.072C486.585 30.464 485.689 26.624 474.937 26.624V25.6H501.817L501.945 26.624C496.569 26.624 489.913 30.72 483.641 35.456L467.513 47.872C483.385 48.256 487.737 54.144 489.145 63.36C490.681 74.112 495.417 76.8 499.641 74.24L500.153 75.264C488.889 85.76 479.033 80.512 479.033 66.304C479.033 54.016 477.113 49.024 466.105 49.024L456.121 57.088V68.096C456.121 74.496 457.145 75.776 463.289 75.776V76.8H438.585V75.776ZM501.995 75.776C510.699 75.776 513.387 70.272 515.691 64.896L529.131 34.432C530.923 29.312 529.899 26.624 524.395 26.624V25.6H547.435V26.624C542.059 26.624 542.955 29.312 544.747 34.432L559.083 68.096C561.387 73.472 563.691 75.776 567.787 75.776V76.8H543.851V75.776C550.507 75.776 549.995 73.344 547.819 68.096L545.259 61.952H538.987C535.275 62.72 533.099 64.128 532.459 65.92C531.307 64 528.747 62.72 525.547 61.952H518.123L516.843 64.896C513.259 73.216 517.227 75.776 525.547 75.776V76.8H501.995V75.776ZM518.635 60.8H526.187C529.387 60.032 531.435 58.624 532.459 56.832C533.099 58.752 535.275 60.032 538.475 60.8H544.747L533.483 34.432C532.843 33.024 532.459 31.744 531.947 30.848C531.435 31.744 530.923 33.024 530.283 34.432L518.635 60.8ZM571.585 75.776C577.729 75.776 579.777 71.424 579.777 65.024V34.432C579.777 27.904 578.753 26.624 572.609 26.624V25.6H589.633L624.705 64.128V35.456C624.705 28.928 619.585 26.624 613.441 26.624V25.6H635.073V26.624C628.929 26.624 625.857 28.928 625.857 35.456V76.8H622.017L580.929 32.384V65.024C580.929 71.424 583.233 75.776 592.193 75.776V76.8H571.585V75.776ZM699.055 100.352C711.599 100.352 713.391 97.792 713.391 84.992V12.544C713.391 4.60805 711.599 2.04804 699.055 2.04804H697.519C677.551 2.04804 667.823 5.63204 655.023 21.504H652.975V4.57764e-05H845.999V21.504H843.951C834.479 5.63204 821.423 2.04804 801.455 2.04804H748.719C736.431 2.04804 734.383 4.60805 734.383 12.544V84.992C734.383 97.792 736.431 100.352 748.719 100.352V102.4H699.055V100.352ZM753.585 75.776C759.729 75.776 760.753 74.496 760.753 68.096V34.432C760.753 27.904 759.729 26.624 753.585 26.624V25.6H778.289V26.624C772.145 26.624 771.121 27.904 771.121 34.432V68.096C771.121 74.496 772.145 75.776 778.289 75.776V76.8H753.585V75.776ZM785.96 75.776C792.104 75.776 794.152 71.424 794.152 65.024V34.432C794.152 27.904 793.128 26.624 786.984 26.624V25.6H804.008L839.08 64.128V35.456C839.08 28.928 833.96 26.624 827.816 26.624V25.6H849.448V26.624C843.304 26.624 840.232 28.928 840.232 35.456V76.8H836.392L795.304 32.384V65.024C795.304 71.424 797.608 75.776 806.568 75.776V76.8H785.96V75.776ZM881.209 77.824C866.489 77.824 854.585 65.792 854.585 51.072C854.585 36.352 866.489 24.576 881.209 24.576C891.833 24.576 897.465 29.568 901.945 29.568C903.865 29.568 905.273 28.416 906.041 26.368H907.065V49.408H906.041C901.817 33.664 891.833 25.6 881.209 25.6C870.073 25.6 866.105 32 866.105 51.072C866.105 70.272 870.073 76.8 881.209 76.8C891.705 76.8 896.441 69.376 896.441 60.672C896.441 54.272 895.417 52.992 889.273 52.992V51.968H913.977V52.992C907.833 52.992 906.809 54.272 906.809 60.672V68.096C906.809 74.496 907.833 75.776 913.977 75.776V76.8H909.625C904.889 76.8 901.689 73.856 900.153 69.888C895.289 74.752 888.633 77.824 881.209 77.824ZM921.71 75.776C927.854 75.776 928.878 74.496 928.878 68.096V34.432C928.878 27.904 927.854 26.624 921.71 26.624V25.6H946.414V26.624C940.27 26.624 939.246 27.904 939.246 34.432V55.424L964.846 35.072C969.71 30.464 968.814 26.624 958.062 26.624V25.6H984.942L985.07 26.624C979.694 26.624 973.038 30.72 966.766 35.456L950.638 47.872C966.51 48.256 970.862 54.144 972.27 63.36C973.806 74.112 978.542 76.8 982.766 74.24L983.278 75.264C972.014 85.76 962.158 80.512 962.158 66.304C962.158 54.016 960.238 49.024 949.23 49.024L939.246 57.088V68.096C939.246 74.496 940.27 75.776 946.414 75.776V76.8H921.71V75.776ZM985.12 75.776C993.824 75.776 996.512 70.272 998.816 64.896L1012.26 34.432C1014.05 29.312 1013.02 26.624 1007.52 26.624V25.6H1030.56V26.624C1025.18 26.624 1026.08 29.312 1027.87 34.432L1042.21 68.096C1044.51 73.472 1046.82 75.776 1050.91 75.776V76.8H1026.98V75.776C1033.63 75.776 1033.12 73.344 1030.94 68.096L1028.38 61.952H1022.11C1018.4 62.72 1016.22 64.128 1015.58 65.92C1014.43 64 1011.87 62.72 1008.67 61.952H1001.25L999.968 64.896C996.384 73.216 1000.35 75.776 1008.67 75.776V76.8H985.12V75.776ZM1001.76 60.8H1009.31C1012.51 60.032 1014.56 58.624 1015.58 56.832C1016.22 58.752 1018.4 60.032 1021.6 60.8H1027.87L1016.61 34.432C1015.97 33.024 1015.58 31.744 1015.07 30.848C1014.56 31.744 1014.05 33.024 1013.41 34.432L1001.76 60.8ZM1071.35 75.776C1077.62 75.776 1078.52 74.496 1078.52 68.096V34.432C1078.52 27.904 1077.62 26.624 1071.35 26.624H1070.58C1060.6 26.624 1055.73 34.816 1055.73 45.312H1054.71V25.6H1112.82V45.312H1111.8C1111.8 34.816 1106.93 26.624 1096.95 26.624H1096.18C1090.04 26.624 1089.01 27.904 1089.01 34.432V68.096C1089.01 74.496 1090.04 75.776 1096.18 75.776V76.8H1071.35V75.776ZM156.025 220.352C168.313 220.352 170.361 217.792 170.361 204.992V137.664C170.361 124.608 168.313 122.048 156.025 122.048V120H209.017C244.089 120 270.457 141.504 270.457 170.944C270.457 195.136 252.665 214.208 226.937 220.352H338.297C367.609 219.84 370.041 206.144 362.489 202.048L363.641 200.896C374.009 202.432 376.825 209.728 373.497 214.72C371.961 217.024 368.889 218.944 363.129 220.352C372.601 220.352 380.281 220.352 384.505 220.096C388.217 219.84 389.497 218.816 390.009 216.768C392.825 216.768 394.361 218.56 396.025 220.48C394.745 222.4 393.209 224.448 390.009 224.448C389.497 222.4 388.601 221.376 384.889 221.632C377.977 222.016 361.081 222.4 342.521 222.4H156.025V220.352ZM191.097 204.992C191.097 217.792 193.145 220.352 205.433 220.352H209.017C236.921 220.352 247.673 209.344 247.673 170.944C247.673 132.8 236.921 122.048 209.017 122.048H205.433C193.145 122.048 191.097 124.608 191.097 137.664V204.992ZM267.87 195.776C276.574 195.776 279.262 190.272 281.566 184.896L295.006 154.432C296.798 149.312 295.774 146.624 290.27 146.624V145.6H313.31V146.624C307.934 146.624 308.83 149.312 310.622 154.432L324.958 188.096C327.262 193.472 329.566 195.776 333.662 195.776V196.8H309.726V195.776C316.382 195.776 315.87 193.344 313.694 188.096L311.134 181.952H304.862C301.15 182.72 298.974 184.128 298.334 185.92C297.182 184 294.622 182.72 291.422 181.952H283.998L282.718 184.896C279.134 193.216 283.102 195.776 291.422 195.776V196.8H267.87V195.776ZM284.51 180.8H292.062C295.262 180.032 297.31 178.624 298.334 176.832C298.974 178.752 301.15 180.032 304.35 180.8H310.622L299.358 154.432C298.718 153.024 298.334 151.744 297.822 150.848C297.31 151.744 296.798 153.024 296.158 154.432L284.51 180.8ZM365.108 197.824C354.484 197.824 346.548 192.96 342.58 192.96C340.66 192.96 339.252 193.984 338.484 196.16H337.46V172.992H338.484C342.708 188.864 354.612 196.8 365.108 196.8C373.812 196.8 377.652 192.448 377.652 187.456C377.652 181.568 373.172 177.728 358.068 174.272C346.036 171.456 340.532 166.336 340.532 158.4C340.532 150.976 345.908 144.576 357.556 144.576C366.004 144.576 372.02 149.44 376.372 149.44C378.292 149.44 379.7 148.288 380.468 146.24H381.492V164.288H380.468C377.78 153.792 367.284 145.6 357.556 145.6C351.028 145.6 347.7 148.928 347.7 153.408C347.7 158.016 350.516 162.24 361.012 164.16C374.708 166.592 384.564 172.096 384.564 181.824C384.564 190.4 379.188 197.824 365.108 197.824ZM385.87 195.776C394.574 195.776 397.262 190.272 399.566 184.896L413.006 154.432C414.798 149.312 413.774 146.624 408.27 146.624V145.6H431.31V146.624C425.934 146.624 426.83 149.312 428.622 154.432L442.958 188.096C445.262 193.472 447.566 195.776 451.662 195.776V196.8H427.726V195.776C434.382 195.776 433.87 193.344 431.694 188.096L429.134 181.952H422.862C419.15 182.72 416.974 184.128 416.334 185.92C415.182 184 412.622 182.72 409.422 181.952H401.998L400.718 184.896C397.134 193.216 401.102 195.776 409.422 195.776V196.8H385.87V195.776ZM402.51 180.8H410.062C413.262 180.032 415.31 178.624 416.334 176.832C416.974 178.752 419.15 180.032 422.35 180.8H428.622L417.358 154.432C416.718 153.024 416.334 151.744 415.822 150.848C415.31 151.744 414.798 153.024 414.158 154.432L402.51 180.8ZM455.46 195.776C461.604 195.776 462.628 194.496 462.628 188.096V154.432C462.628 147.904 461.604 146.624 455.46 146.624V145.6H480.292C494.884 145.6 507.812 146.88 507.812 158.784C507.812 167.616 500.772 170.688 491.3 171.712C501.284 172.992 506.148 176.704 507.556 185.152C509.092 194.88 513.828 198.208 518.052 195.904L518.564 196.8C507.172 206.272 497.444 200.64 497.444 187.712C497.444 174.016 491.3 172.224 480.292 172.224H472.996V188.096C472.996 194.496 474.02 195.776 480.164 195.776V196.8H455.46V195.776ZM472.996 171.2H480.292C491.3 171.2 496.42 168.512 496.42 158.784C496.42 148.928 491.3 146.624 480.292 146.624H480.164C474.02 146.624 472.996 147.904 472.996 154.432V171.2ZM545.525 220.352C557.813 220.352 559.861 217.792 559.861 204.992V137.664C559.861 124.608 557.813 122.048 545.525 122.048V120H594.933V122.048C582.645 122.048 580.597 124.608 580.597 137.664V179.648L631.797 138.944C641.525 129.728 639.733 122.048 618.229 122.048V120H725.109C725.877 119.232 727.157 118.592 727.669 118.592C728.437 118.592 729.973 119.872 729.973 121.024C729.973 122.56 728.437 123.584 727.669 123.584C727.029 123.584 725.621 122.944 724.981 122.048H672.245C661.493 122.048 648.053 130.112 635.637 139.712L603.381 164.544C635.125 165.312 642.933 178.24 646.517 195.392C649.717 210.496 659.189 215.872 667.637 210.752L668.661 212.8C646.133 233.792 626.421 223.296 626.421 201.28C626.421 177.984 622.581 166.848 600.565 166.848L580.597 182.976V204.992C580.597 217.792 582.645 220.352 594.933 220.352V222.4H545.525V220.352ZM732.405 121.024C732.405 119.36 733.429 117.952 738.549 117.952C743.797 117.952 744.693 119.36 744.693 121.024C744.693 122.816 743.797 124.352 738.549 124.352C733.429 124.352 732.405 122.816 732.405 121.024ZM747.509 121.024C747.509 119.872 748.917 118.592 749.685 118.592C750.325 118.592 751.989 119.488 752.629 120.384H807.541C808.181 119.488 809.973 118.592 810.613 118.592C811.381 118.592 812.661 119.872 812.661 121.024C812.661 122.56 811.381 123.584 810.613 123.584C809.973 123.584 808.181 122.944 807.541 121.792H798.325C804.597 123.84 806.901 128.064 806.901 132.16C806.901 138.56 801.909 142.912 794.869 142.912C788.341 142.912 783.605 138.816 783.605 133.312C783.605 128.832 786.933 124.864 791.669 124.864C796.405 124.864 800.117 127.552 800.117 131.904C800.117 136 797.045 138.176 794.357 138.176C791.157 138.176 789.493 136.128 789.365 134.464C788.981 131.648 791.029 130.112 792.309 130.112C793.845 130.112 795.253 131.264 795.253 133.184C795.253 134.592 793.845 136 792.309 136C791.669 136 791.285 135.872 791.029 135.616C791.669 136.384 792.693 137.024 794.357 137.024C796.405 137.024 798.965 135.488 798.965 131.904C798.965 128.448 795.893 126.016 791.669 126.016C787.445 126.016 784.629 129.344 784.629 133.312C784.629 137.28 788.341 141.76 794.869 141.76C801.269 141.76 805.621 138.048 805.621 132.16C805.621 127.424 802.037 122.688 792.181 121.792H752.629C752.117 122.944 750.325 123.584 749.685 123.584C748.917 123.584 747.509 122.56 747.509 121.024ZM718.571 224.448C697.323 224.448 681.451 214.72 673.515 214.72C669.675 214.72 666.859 216.768 665.323 221.12H663.275V174.784H665.323C673.771 206.528 697.579 222.4 718.571 222.4C735.979 222.4 743.659 213.696 743.659 201.152C743.659 189.376 734.699 179.136 704.491 174.784C680.043 171.2 669.419 160.96 669.419 146.624C669.419 130.24 685.291 120 721.643 120H957.163C975.723 120 992.619 120.384 999.531 120.768C1003.24 121.024 1004.14 120 1004.65 117.952C1007.85 117.952 1009.39 120 1010.67 121.92C1009 123.84 1007.47 125.632 1004.65 125.632C1004.14 123.584 1002.86 122.56 999.147 122.304C994.923 122.048 987.243 122.048 977.771 122.048C983.531 123.456 986.603 125.376 988.139 127.68C991.467 132.672 988.651 139.968 978.283 141.504L977.131 140.352C984.683 136.256 982.251 122.56 952.939 122.048H721.643C695.531 122.048 683.755 127.552 683.755 138.432C683.755 146.368 689.259 151.872 713.579 154.944C737.899 158.144 755.563 170.56 757.483 189.888C759.403 209.6 743.659 224.448 718.571 224.448ZM758.775 120H917.111C917.879 119.232 919.159 118.592 919.671 118.592C920.439 118.592 921.975 119.872 921.975 121.024C921.975 122.56 920.439 123.584 919.671 123.584C919.031 123.584 917.623 122.944 916.983 122.048H808.183C795.895 122.048 793.847 124.608 793.847 137.408V171.2H809.975C829.943 171.2 835.831 164.288 835.831 148.672H837.879V196.032H835.831C835.831 180.672 829.943 173.504 809.975 173.504H793.847V204.736C793.847 217.792 795.895 220.352 808.183 220.352H828.151C848.119 220.352 857.847 208.832 857.847 193.216H859.895V222.4H758.775V220.352C771.063 220.352 773.111 217.792 773.111 204.736V137.408C773.111 124.608 771.063 122.048 758.775 122.048V120ZM924.407 121.024C924.407 119.36 925.431 117.952 930.551 117.952C935.799 117.952 936.695 119.36 936.695 121.024C936.695 122.816 935.799 124.352 930.551 124.352C925.431 124.352 924.407 122.816 924.407 121.024ZM939.511 121.024C939.511 119.872 940.919 118.592 941.687 118.592C942.327 118.592 943.991 119.488 944.631 120.384H999.543C1000.18 119.488 1001.98 118.592 1002.62 118.592C1003.38 118.592 1004.66 119.872 1004.66 121.024C1004.66 122.56 1003.38 123.584 1002.62 123.584C1001.98 123.584 1000.18 122.944 999.543 121.792H990.327C996.599 123.84 998.903 128.064 998.903 132.16C998.903 138.56 993.911 142.912 986.871 142.912C980.343 142.912 975.607 138.816 975.607 133.312C975.607 128.832 978.935 124.864 983.671 124.864C988.407 124.864 992.119 127.552 992.119 131.904C992.119 136 989.047 138.176 986.359 138.176C983.159 138.176 981.495 136.128 981.367 134.464C980.983 131.648 983.031 130.112 984.311 130.112C985.847 130.112 987.255 131.264 987.255 133.184C987.255 134.592 985.847 136 984.311 136C983.671 136 983.287 135.872 983.031 135.616C983.671 136.384 984.695 137.024 986.359 137.024C988.407 137.024 990.967 135.488 990.967 131.904C990.967 128.448 987.895 126.016 983.671 126.016C979.447 126.016 976.631 129.344 976.631 133.312C976.631 137.28 980.343 141.76 986.871 141.76C993.271 141.76 997.623 138.048 997.623 132.16C997.623 127.424 994.039 122.688 984.183 121.792H944.631C944.119 122.944 942.327 123.584 941.687 123.584C940.919 123.584 939.511 122.56 939.511 121.024ZM866.525 220.352C878.813 220.352 880.861 217.792 880.861 204.992V137.664C880.861 124.608 878.813 122.048 866.525 122.048V120H915.933C945.373 120 969.181 128.704 969.181 152.512C969.181 176.576 945.373 185.536 915.933 185.536H901.597V204.992C901.597 217.792 903.645 220.352 915.933 220.352H1015.52C1016.16 219.456 1017.57 218.816 1018.21 218.816C1018.97 218.816 1020.51 219.84 1020.51 221.376C1020.51 222.528 1018.97 223.808 1018.21 223.808C1017.69 223.808 1016.41 223.168 1015.65 222.4H866.525V220.352ZM901.597 183.488H915.933C938.205 183.488 946.397 179.904 946.397 152.512C946.397 125.376 938.205 122.048 915.933 122.048C903.645 122.048 901.597 124.608 901.597 137.664V183.488ZM1022.94 221.376C1022.94 219.584 1023.96 218.048 1029.09 218.048C1034.33 218.048 1035.23 219.584 1035.23 221.376C1035.23 223.04 1034.33 224.448 1029.09 224.448C1023.96 224.448 1022.94 223.04 1022.94 221.376ZM1038.04 221.376C1038.04 219.84 1039.45 218.816 1040.22 218.816C1040.86 218.816 1042.65 219.456 1043.17 220.608H1082.72C1092.57 219.712 1096.16 214.976 1096.16 210.24C1096.16 204.352 1091.81 200.64 1085.4 200.64C1078.88 200.64 1075.17 205.12 1075.17 209.088C1075.17 213.056 1077.98 216.384 1082.21 216.384C1086.43 216.384 1089.5 213.952 1089.5 210.496C1089.5 206.912 1086.94 205.376 1084.89 205.376C1083.23 205.376 1082.21 206.016 1081.57 206.784C1081.82 206.528 1082.21 206.4 1082.85 206.4C1084.38 206.4 1085.79 207.808 1085.79 209.216C1085.79 211.136 1084.38 212.288 1082.85 212.288C1081.57 212.288 1079.52 210.752 1079.9 207.936C1080.03 206.272 1081.69 204.224 1084.89 204.224C1087.58 204.224 1090.65 206.4 1090.65 210.496C1090.65 214.848 1086.94 217.536 1082.21 217.536C1077.47 217.536 1074.14 213.568 1074.14 209.088C1074.14 203.584 1078.88 199.488 1085.4 199.488C1092.45 199.488 1097.44 203.84 1097.44 210.24C1097.44 214.336 1095.13 218.56 1088.86 220.608H1098.08C1098.72 219.456 1100.51 218.816 1101.15 218.816C1101.92 218.816 1103.2 219.84 1103.2 221.376C1103.2 222.528 1101.92 223.808 1101.15 223.808C1100.51 223.808 1098.72 222.912 1098.08 222.016H1043.17C1042.53 222.912 1040.86 223.808 1040.22 223.808C1039.45 223.808 1038.04 222.528 1038.04 221.376Z" fill="url(#paint0_linear_1_188)"/>
</g>
<defs>
<filter id="filter0_d_1_188" x="-5.72205e-06" y="0" width="1122.72" height="256.692" filterUnits="userSpaceOnUse" color-interpolation-filters="sRGB">
<feFlood flood-opacity="0" result="BackgroundImageFix"/>
<feColorMatrix in="SourceAlpha" type="matrix" values="0 0 0 0 0 0 0 0 0 0 0 0 0 0 0 0 0 0 127 0" result="hardAlpha"/>
<feOffset dy="13"/>
<feGaussianBlur stdDeviation="4.95"/>
<feComposite in2="hardAlpha" operator="out"/>
<feColorMatrix type="matrix" values="0 0 0 0 0 0 0 0 0 0 0 0 0 0 0 0 0 0 0.5 0"/>
<feBlend mode="normal" in2="BackgroundImageFix" result="effect1_dropShadow_1_188"/>
<feBlend mode="normal" in="SourceGraphic" in2="effect1_dropShadow_1_188" result="shape"/>
</filter>
<linearGradient id="paint0_linear_1_188" x1="562.185" y1="20.6926" x2="565.482" y2="232.756" gradientUnits="userSpaceOnUse">
<stop stop-color="#DEA55C"/>
<stop offset="1" stop-color="#624C2F"/>
</linearGradient>
</defs>
</svg>
