<svg width="1386" height="100" viewBox="0 0 1386 100" fill="none" xmlns="http://www.w3.org/2000/svg">
<g filter="url(#filter0_d_679_533)">
<path d="M10.2013 67.456C18.2653 67.456 19.6093 65.776 19.6093 57.376V13.192C19.6093 4.624 18.2653 2.944 10.2013 2.944V1.6H42.6253C61.9453 1.6 77.5693 7.312 77.5693 22.936C77.5693 38.728 61.9453 44.608 42.6253 44.608H33.2173V57.376C33.2173 65.776 34.5613 67.456 42.6253 67.456H107.977C108.397 66.868 109.321 66.448 109.741 66.448C110.245 66.448 111.253 67.12 111.253 68.128C111.253 68.884 110.245 69.724 109.741 69.724C109.405 69.724 108.565 69.304 108.061 68.8H10.2013V67.456ZM33.2173 43.264H42.6253C57.2413 43.264 62.6173 40.912 62.6173 22.936C62.6173 5.128 57.2413 2.944 42.6253 2.944C34.5613 2.944 33.2173 4.624 33.2173 13.192V43.264ZM112.849 68.128C112.849 66.952 113.521 65.944 116.881 65.944C120.325 65.944 120.913 66.952 120.913 68.128C120.913 69.22 120.325 70.144 116.881 70.144C113.521 70.144 112.849 69.22 112.849 68.128ZM122.761 68.128C122.761 67.12 123.685 66.448 124.189 66.448C124.609 66.448 125.785 66.868 126.121 67.624H152.077C158.545 67.036 160.897 63.928 160.897 60.82C160.897 56.956 158.041 54.52 153.841 54.52C149.557 54.52 147.121 57.46 147.121 60.064C147.121 62.668 148.969 64.852 151.741 64.852C154.513 64.852 156.529 63.256 156.529 60.988C156.529 58.636 154.849 57.628 153.505 57.628C152.413 57.628 151.741 58.048 151.321 58.552C151.489 58.384 151.741 58.3 152.161 58.3C153.169 58.3 154.093 59.224 154.093 60.148C154.093 61.408 153.169 62.164 152.161 62.164C151.321 62.164 149.977 61.156 150.229 59.308C150.313 58.216 151.405 56.872 153.505 56.872C155.269 56.872 157.285 58.3 157.285 60.988C157.285 63.844 154.849 65.608 151.741 65.608C148.633 65.608 146.449 63.004 146.449 60.064C146.449 56.452 149.557 53.764 153.841 53.764C158.461 53.764 161.737 56.62 161.737 60.82C161.737 63.508 160.225 66.28 156.109 67.624H162.157C162.577 66.868 163.753 66.448 164.173 66.448C164.677 66.448 165.517 67.12 165.517 68.128C165.517 68.884 164.677 69.724 164.173 69.724C163.753 69.724 162.577 69.136 162.157 68.548H126.121C125.701 69.136 124.609 69.724 124.189 69.724C123.685 69.724 122.761 68.884 122.761 68.128ZM80.9516 51.328C84.9836 51.328 85.6556 50.488 85.6556 46.288V24.196C85.6556 19.912 84.9836 19.072 80.9516 19.072V18.4H114.132V27.976H113.46C113.46 22.852 110.268 19.072 103.716 19.072H97.1636C93.1316 19.072 92.4596 19.912 92.4596 24.196V34.444H97.7516C104.304 34.444 106.236 32.092 106.236 27.052H106.908V42.592H106.236C106.236 37.468 104.304 35.2 97.7516 35.2H92.4596V46.288C92.4596 50.488 93.1316 51.328 97.1636 51.328H105.06C111.612 51.328 114.804 47.632 114.804 42.508H115.476V52H80.9516V51.328ZM120.491 51.328C124.523 51.328 125.867 48.472 125.867 44.272V24.196C125.867 19.912 125.195 19.072 121.163 19.072V18.4H132.335L155.351 43.684V24.868C155.351 20.584 151.991 19.072 147.959 19.072V18.4H162.155V19.072C158.123 19.072 156.107 20.584 156.107 24.868V52H153.587L126.623 22.852V44.272C126.623 48.472 128.135 51.328 134.015 51.328V52H120.491V51.328ZM167.166 51.328C171.198 51.328 171.87 50.488 171.87 46.288V24.196C171.87 19.912 171.198 19.072 167.166 19.072V18.4H184.554C196.062 18.4 204.714 25.456 204.714 35.116C204.714 44.776 196.062 52 184.554 52H167.166V51.328ZM178.674 46.288C178.674 50.488 179.346 51.328 183.378 51.328H184.554C193.71 51.328 197.238 47.716 197.238 35.116C197.238 22.6 193.71 19.072 184.554 19.072H183.378C179.346 19.072 178.674 19.912 178.674 24.196V46.288ZM208.1 51.328C212.132 51.328 212.804 50.488 212.804 46.288V24.196C212.804 19.912 212.132 19.072 208.1 19.072V18.4H224.312V19.072C220.28 19.072 219.608 19.912 219.608 24.196V46.288C219.608 50.488 220.28 51.328 224.312 51.328V52H208.1V51.328ZM229.346 51.328C233.378 51.328 234.05 50.488 234.05 46.288V24.196C234.05 19.912 233.378 19.072 229.346 19.072V18.4H246.734C258.242 18.4 266.894 25.456 266.894 35.116C266.894 44.776 258.242 52 246.734 52H229.346V51.328ZM240.854 46.288C240.854 50.488 241.526 51.328 245.558 51.328H246.734C255.89 51.328 259.418 47.716 259.418 35.116C259.418 22.6 255.89 19.072 246.734 19.072H245.558C241.526 19.072 240.854 19.912 240.854 24.196V46.288ZM270.28 51.328C274.312 51.328 274.984 50.488 274.984 46.288V24.196C274.984 19.912 274.312 19.072 270.28 19.072V18.4H286.492V19.072C282.46 19.072 281.788 19.912 281.788 24.196V46.288C281.788 50.488 282.46 51.328 286.492 51.328V52H270.28V51.328ZM291.526 51.328C295.558 51.328 296.23 50.488 296.23 46.288V24.196C296.23 19.912 295.558 19.072 291.526 19.072V18.4H307.738V19.072C303.706 19.072 303.034 19.912 303.034 24.196V37.972L319.834 24.616C323.026 21.592 322.438 19.072 315.382 19.072V18.4H333.022L333.106 19.072C329.578 19.072 325.21 21.76 321.094 24.868L310.51 33.016C320.926 33.268 323.782 37.132 324.706 43.18C325.714 50.236 328.822 52 331.594 50.32L331.93 50.992C324.538 57.88 318.07 54.436 318.07 45.112C318.07 37.048 316.81 33.772 309.586 33.772L303.034 39.064V46.288C303.034 50.488 303.706 51.328 307.738 51.328V52H291.526V51.328ZM333.139 51.328C338.851 51.328 340.615 47.716 342.127 44.188L350.947 24.196C352.123 20.836 351.451 19.072 347.839 19.072V18.4H362.959V19.072C359.431 19.072 360.019 20.836 361.195 24.196L370.603 46.288C372.115 49.816 373.627 51.328 376.315 51.328V52H360.607V51.328C364.975 51.328 364.639 49.732 363.211 46.288L361.531 42.256H357.415C354.979 42.76 353.551 43.684 353.131 44.86C352.375 43.6 350.695 42.76 348.595 42.256H343.723L342.883 44.188C340.531 49.648 343.135 51.328 348.595 51.328V52H333.139V51.328ZM344.059 41.5H349.015C351.115 40.996 352.459 40.072 353.131 38.896C353.551 40.156 354.979 40.996 357.079 41.5H361.195L353.803 24.196C353.383 23.272 353.131 22.432 352.795 21.844C352.459 22.432 352.123 23.272 351.703 24.196L344.059 41.5ZM378.807 51.328C382.839 51.328 384.183 48.472 384.183 44.272V24.196C384.183 19.912 383.511 19.072 379.479 19.072V18.4H390.651L413.667 43.684V24.868C413.667 20.584 410.307 19.072 406.275 19.072V18.4H420.471V19.072C416.439 19.072 414.423 20.584 414.423 24.868V52H411.903L384.939 22.852V44.272C384.939 48.472 386.451 51.328 392.331 51.328V52H378.807V51.328ZM462.459 67.456C470.691 67.456 471.867 65.776 471.867 57.376V9.832C471.867 4.624 470.691 2.944 462.459 2.944H461.451C448.347 2.944 441.963 5.296 433.563 15.712H432.219V1.6H558.891V15.712H557.547C551.331 5.296 542.763 2.944 529.659 2.944H495.051C486.987 2.944 485.643 4.624 485.643 9.832V57.376C485.643 65.776 486.987 67.456 495.051 67.456V68.8H462.459V67.456ZM498.245 51.328C502.277 51.328 502.949 50.488 502.949 46.288V24.196C502.949 19.912 502.277 19.072 498.245 19.072V18.4H514.457V19.072C510.425 19.072 509.753 19.912 509.753 24.196V46.288C509.753 50.488 510.425 51.328 514.457 51.328V52H498.245V51.328ZM519.491 51.328C523.523 51.328 524.867 48.472 524.867 44.272V24.196C524.867 19.912 524.195 19.072 520.163 19.072V18.4H531.335L554.351 43.684V24.868C554.351 20.584 550.991 19.072 546.959 19.072V18.4H561.155V19.072C557.123 19.072 555.107 20.584 555.107 24.868V52H552.587L525.623 22.852V44.272C525.623 48.472 527.135 51.328 533.015 51.328V52H519.491V51.328ZM581.998 52.672C572.338 52.672 564.526 44.776 564.526 35.116C564.526 25.456 572.338 17.728 581.998 17.728C588.97 17.728 592.666 21.004 595.606 21.004C596.866 21.004 597.79 20.248 598.294 18.904H598.966V34.024H598.294C595.522 23.692 588.97 18.4 581.998 18.4C574.69 18.4 572.086 22.6 572.086 35.116C572.086 47.716 574.69 52 581.998 52C588.886 52 591.994 47.128 591.994 41.416C591.994 37.216 591.322 36.376 587.29 36.376V35.704H603.502V36.376C599.47 36.376 598.798 37.216 598.798 41.416V46.288C598.798 50.488 599.47 51.328 603.502 51.328V52H600.646C597.538 52 595.438 50.068 594.43 47.464C591.238 50.656 586.87 52.672 581.998 52.672ZM608.577 51.328C612.609 51.328 613.281 50.488 613.281 46.288V24.196C613.281 19.912 612.609 19.072 608.577 19.072V18.4H624.789V19.072C620.757 19.072 620.085 19.912 620.085 24.196V37.972L636.885 24.616C640.077 21.592 639.489 19.072 632.433 19.072V18.4H650.073L650.157 19.072C646.629 19.072 642.261 21.76 638.145 24.868L627.561 33.016C637.977 33.268 640.833 37.132 641.757 43.18C642.765 50.236 645.873 52 648.645 50.32L648.981 50.992C641.589 57.88 635.121 54.436 635.121 45.112C635.121 37.048 633.861 33.772 626.637 33.772L620.085 39.064V46.288C620.085 50.488 620.757 51.328 624.789 51.328V52H608.577V51.328ZM650.189 51.328C655.901 51.328 657.665 47.716 659.177 44.188L667.997 24.196C669.173 20.836 668.501 19.072 664.889 19.072V18.4H680.009V19.072C676.481 19.072 677.069 20.836 678.245 24.196L687.653 46.288C689.165 49.816 690.677 51.328 693.365 51.328V52H677.657V51.328C682.025 51.328 681.689 49.732 680.261 46.288L678.581 42.256H674.465C672.029 42.76 670.601 43.684 670.181 44.86C669.425 43.6 667.745 42.76 665.645 42.256H660.773L659.933 44.188C657.581 49.648 660.185 51.328 665.645 51.328V52H650.189V51.328ZM661.109 41.5H666.065C668.165 40.996 669.509 40.072 670.181 38.896C670.601 40.156 672.029 40.996 674.129 41.5H678.245L670.853 24.196C670.433 23.272 670.181 22.432 669.845 21.844C669.509 22.432 669.173 23.272 668.753 24.196L661.109 41.5ZM706.778 51.328C710.894 51.328 711.482 50.488 711.482 46.288V24.196C711.482 19.912 710.894 19.072 706.778 19.072H706.274C699.722 19.072 696.53 24.448 696.53 31.336H695.858V18.4H733.994V31.336H733.322C733.322 24.448 730.13 19.072 723.578 19.072H723.074C719.042 19.072 718.37 19.912 718.37 24.196V46.288C718.37 50.488 719.042 51.328 723.074 51.328V52H706.778V51.328ZM754.143 67.456C762.207 67.456 763.551 65.776 763.551 57.376V13.192C763.551 4.624 762.207 2.944 754.143 2.944V1.6H788.919C811.935 1.6 829.239 15.712 829.239 35.032C829.239 50.908 817.563 63.424 800.679 67.456H873.759C892.995 67.12 894.591 58.132 889.635 55.444L890.391 54.688C897.195 55.696 899.043 60.484 896.859 63.76C895.851 65.272 893.835 66.532 890.055 67.456C896.271 67.456 901.311 67.456 904.083 67.288C906.519 67.12 907.359 66.448 907.695 65.104C909.543 65.104 910.551 66.28 911.643 67.54C910.803 68.8 909.795 70.144 907.695 70.144C907.359 68.8 906.771 68.128 904.335 68.296C899.799 68.548 888.711 68.8 876.531 68.8H754.143V67.456ZM777.159 57.376C777.159 65.776 778.503 67.456 786.567 67.456H788.919C807.231 67.456 814.287 60.232 814.287 35.032C814.287 10 807.231 2.944 788.919 2.944H786.567C778.503 2.944 777.159 4.624 777.159 13.192V57.376ZM827.541 51.328C833.253 51.328 835.017 47.716 836.529 44.188L845.349 24.196C846.525 20.836 845.853 19.072 842.241 19.072V18.4H857.361V19.072C853.833 19.072 854.421 20.836 855.597 24.196L865.005 46.288C866.517 49.816 868.029 51.328 870.717 51.328V52H855.009V51.328C859.377 51.328 859.041 49.732 857.613 46.288L855.933 42.256H851.817C849.381 42.76 847.953 43.684 847.533 44.86C846.777 43.6 845.097 42.76 842.997 42.256H838.125L837.285 44.188C834.933 49.648 837.537 51.328 842.997 51.328V52H827.541V51.328ZM838.461 41.5H843.417C845.517 40.996 846.861 40.072 847.533 38.896C847.953 40.156 849.381 40.996 851.481 41.5H855.597L848.205 24.196C847.785 23.272 847.533 22.432 847.197 21.844C846.861 22.432 846.525 23.272 846.105 24.196L838.461 41.5ZM891.353 52.672C884.381 52.672 879.173 49.48 876.569 49.48C875.309 49.48 874.385 50.152 873.881 51.58H873.209V36.376H873.881C876.653 46.792 884.465 52 891.353 52C897.065 52 899.585 49.144 899.585 45.868C899.585 42.004 896.645 39.484 886.733 37.216C878.837 35.368 875.225 32.008 875.225 26.8C875.225 21.928 878.753 17.728 886.397 17.728C891.941 17.728 895.889 20.92 898.745 20.92C900.005 20.92 900.929 20.164 901.433 18.82H902.105V30.664H901.433C899.669 23.776 892.781 18.4 886.397 18.4C882.113 18.4 879.929 20.584 879.929 23.524C879.929 26.548 881.777 29.32 888.665 30.58C897.653 32.176 904.121 35.788 904.121 42.172C904.121 47.8 900.593 52.672 891.353 52.672ZM904.979 51.328C910.691 51.328 912.455 47.716 913.967 44.188L922.787 24.196C923.963 20.836 923.291 19.072 919.679 19.072V18.4H934.799V19.072C931.271 19.072 931.859 20.836 933.035 24.196L942.443 46.288C943.955 49.816 945.467 51.328 948.155 51.328V52H932.447V51.328C936.815 51.328 936.479 49.732 935.051 46.288L933.371 42.256H929.255C926.819 42.76 925.391 43.684 924.971 44.86C924.215 43.6 922.535 42.76 920.435 42.256H915.563L914.723 44.188C912.371 49.648 914.975 51.328 920.435 51.328V52H904.979V51.328ZM915.899 41.5H920.855C922.955 40.996 924.299 40.072 924.971 38.896C925.391 40.156 926.819 40.996 928.919 41.5H933.035L925.643 24.196C925.223 23.272 924.971 22.432 924.635 21.844C924.299 22.432 923.963 23.272 923.543 24.196L915.899 41.5ZM950.647 51.328C954.679 51.328 955.351 50.488 955.351 46.288V24.196C955.351 19.912 954.679 19.072 950.647 19.072V18.4H966.943C976.519 18.4 985.003 19.24 985.003 27.052C985.003 32.848 980.383 34.864 974.167 35.536C980.719 36.376 983.911 38.812 984.835 44.356C985.843 50.74 988.951 52.924 991.723 51.412L992.059 52C984.583 58.216 978.199 54.52 978.199 46.036C978.199 37.048 974.167 35.872 966.943 35.872H962.155V46.288C962.155 50.488 962.827 51.328 966.859 51.328V52H950.647V51.328ZM962.155 35.2H966.943C974.167 35.2 977.527 33.436 977.527 27.052C977.527 20.584 974.167 19.072 966.943 19.072H966.859C962.827 19.072 962.155 19.912 962.155 24.196V35.2ZM1009.75 67.456C1017.82 67.456 1019.16 65.776 1019.16 57.376V13.192C1019.16 4.624 1017.82 2.944 1009.75 2.944V1.6H1042.18V2.944C1034.11 2.944 1032.77 4.624 1032.77 13.192V40.744L1066.37 14.032C1072.75 7.984 1071.58 2.944 1057.46 2.944V1.6H1127.6C1128.11 1.096 1128.95 0.676 1129.28 0.676C1129.79 0.676 1130.8 1.516 1130.8 2.272C1130.8 3.28 1129.79 3.952 1129.28 3.952C1128.86 3.952 1127.94 3.532 1127.52 2.944H1092.91C1085.86 2.944 1077.04 8.236 1068.89 14.536L1047.72 30.832C1068.55 31.336 1073.68 39.82 1076.03 51.076C1078.13 60.988 1084.34 64.516 1089.89 61.156L1090.56 62.5C1075.78 76.276 1062.84 69.388 1062.84 54.94C1062.84 39.652 1060.32 32.344 1045.87 32.344L1032.77 42.928V57.376C1032.77 65.776 1034.11 67.456 1042.18 67.456V68.8H1009.75V67.456ZM1132.39 2.272C1132.39 1.18 1133.06 0.255995 1136.42 0.255995C1139.87 0.255995 1140.46 1.18 1140.46 2.272C1140.46 3.448 1139.87 4.456 1136.42 4.456C1133.06 4.456 1132.39 3.448 1132.39 2.272ZM1142.3 2.272C1142.3 1.516 1143.23 0.676 1143.73 0.676C1144.15 0.676 1145.24 1.264 1145.66 1.852H1181.7C1182.12 1.264 1183.3 0.676 1183.72 0.676C1184.22 0.676 1185.06 1.516 1185.06 2.272C1185.06 3.28 1184.22 3.952 1183.72 3.952C1183.3 3.952 1182.12 3.532 1181.7 2.776H1175.65C1179.77 4.12 1181.28 6.892 1181.28 9.58C1181.28 13.78 1178 16.636 1173.38 16.636C1169.1 16.636 1165.99 13.948 1165.99 10.336C1165.99 7.396 1168.18 4.792 1171.28 4.792C1174.39 4.792 1176.83 6.556 1176.83 9.412C1176.83 12.1 1174.81 13.528 1173.05 13.528C1170.95 13.528 1169.86 12.184 1169.77 11.092C1169.52 9.244 1170.86 8.236 1171.7 8.236C1172.71 8.236 1173.64 8.992 1173.64 10.252C1173.64 11.176 1172.71 12.1 1171.7 12.1C1171.28 12.1 1171.03 12.016 1170.86 11.848C1171.28 12.352 1171.96 12.772 1173.05 12.772C1174.39 12.772 1176.07 11.764 1176.07 9.412C1176.07 7.144 1174.06 5.548 1171.28 5.548C1168.51 5.548 1166.66 7.732 1166.66 10.336C1166.66 12.94 1169.1 15.88 1173.38 15.88C1177.58 15.88 1180.44 13.444 1180.44 9.58C1180.44 6.472 1178.09 3.364 1171.62 2.776H1145.66C1145.33 3.532 1144.15 3.952 1143.73 3.952C1143.23 3.952 1142.3 3.28 1142.3 2.272ZM1123.31 70.144C1109.37 70.144 1098.95 63.76 1093.75 63.76C1091.23 63.76 1089.38 65.104 1088.37 67.96H1087.03V37.552H1088.37C1093.91 58.384 1109.54 68.8 1123.31 68.8C1134.74 68.8 1139.78 63.088 1139.78 54.856C1139.78 47.128 1133.9 40.408 1114.07 37.552C1098.03 35.2 1091.06 28.48 1091.06 19.072C1091.06 8.32 1101.47 1.6 1125.33 1.6H1279.89C1292.07 1.6 1303.16 1.852 1307.69 2.104C1310.13 2.272 1310.72 1.6 1311.05 0.255995C1313.15 0.255995 1314.16 1.6 1315 2.86C1313.91 4.12 1312.9 5.296 1311.05 5.296C1310.72 3.952 1309.88 3.28 1307.44 3.112C1304.67 2.944 1299.63 2.944 1293.41 2.944C1297.19 3.868 1299.21 5.128 1300.22 6.64C1302.4 9.916 1300.55 14.704 1293.75 15.712L1292.99 14.956C1297.95 12.268 1296.35 3.28 1277.12 2.944H1125.33C1108.19 2.944 1100.47 6.556 1100.47 13.696C1100.47 18.904 1104.08 22.516 1120.04 24.532C1136 26.632 1147.59 34.78 1148.85 47.464C1150.11 60.4 1139.78 70.144 1123.31 70.144ZM1149.7 1.6H1253.61C1254.11 1.096 1254.95 0.676 1255.29 0.676C1255.79 0.676 1256.8 1.516 1256.8 2.272C1256.8 3.28 1255.79 3.952 1255.29 3.952C1254.87 3.952 1253.94 3.532 1253.52 2.944H1182.12C1174.06 2.944 1172.71 4.624 1172.71 13.024V35.2H1183.3C1196.4 35.2 1200.27 30.664 1200.27 20.416H1201.61V51.496H1200.27C1200.27 41.416 1196.4 36.712 1183.3 36.712H1172.71V57.208C1172.71 65.776 1174.06 67.456 1182.12 67.456H1195.23C1208.33 67.456 1214.71 59.896 1214.71 49.648H1216.06V68.8H1149.7V67.456C1157.76 67.456 1159.11 65.776 1159.11 57.208V13.024C1159.11 4.624 1157.76 2.944 1149.7 2.944V1.6ZM1258.39 2.272C1258.39 1.18 1259.07 0.255995 1262.43 0.255995C1265.87 0.255995 1266.46 1.18 1266.46 2.272C1266.46 3.448 1265.87 4.456 1262.43 4.456C1259.07 4.456 1258.39 3.448 1258.39 2.272ZM1268.31 2.272C1268.31 1.516 1269.23 0.676 1269.73 0.676C1270.15 0.676 1271.25 1.264 1271.67 1.852H1307.7C1308.12 1.264 1309.3 0.676 1309.72 0.676C1310.22 0.676 1311.06 1.516 1311.06 2.272C1311.06 3.28 1310.22 3.952 1309.72 3.952C1309.3 3.952 1308.12 3.532 1307.7 2.776H1301.65C1305.77 4.12 1307.28 6.892 1307.28 9.58C1307.28 13.78 1304.01 16.636 1299.39 16.636C1295.1 16.636 1291.99 13.948 1291.99 10.336C1291.99 7.396 1294.18 4.792 1297.29 4.792C1300.39 4.792 1302.83 6.556 1302.83 9.412C1302.83 12.1 1300.81 13.528 1299.05 13.528C1296.95 13.528 1295.86 12.184 1295.77 11.092C1295.52 9.244 1296.87 8.236 1297.71 8.236C1298.71 8.236 1299.64 8.992 1299.64 10.252C1299.64 11.176 1298.71 12.1 1297.71 12.1C1297.29 12.1 1297.03 12.016 1296.87 11.848C1297.29 12.352 1297.96 12.772 1299.05 12.772C1300.39 12.772 1302.07 11.764 1302.07 9.412C1302.07 7.144 1300.06 5.548 1297.29 5.548C1294.51 5.548 1292.67 7.732 1292.67 10.336C1292.67 12.94 1295.1 15.88 1299.39 15.88C1303.59 15.88 1306.44 13.444 1306.44 9.58C1306.44 6.472 1304.09 3.364 1297.62 2.776H1271.67C1271.33 3.532 1270.15 3.952 1269.73 3.952C1269.23 3.952 1268.31 3.28 1268.31 2.272ZM1220.41 67.456C1228.47 67.456 1229.82 65.776 1229.82 57.376V13.192C1229.82 4.624 1228.47 2.944 1220.41 2.944V1.6H1252.83C1272.15 1.6 1287.78 7.312 1287.78 22.936C1287.78 38.728 1272.15 44.608 1252.83 44.608H1243.42V57.376C1243.42 65.776 1244.77 67.456 1252.83 67.456H1318.18C1318.6 66.868 1319.53 66.448 1319.95 66.448C1320.45 66.448 1321.46 67.12 1321.46 68.128C1321.46 68.884 1320.45 69.724 1319.95 69.724C1319.61 69.724 1318.77 69.304 1318.27 68.8H1220.41V67.456ZM1243.42 43.264H1252.83C1267.45 43.264 1272.82 40.912 1272.82 22.936C1272.82 5.128 1267.45 2.944 1252.83 2.944C1244.77 2.944 1243.42 4.624 1243.42 13.192V43.264ZM1323.06 68.128C1323.06 66.952 1323.73 65.944 1327.09 65.944C1330.53 65.944 1331.12 66.952 1331.12 68.128C1331.12 69.22 1330.53 70.144 1327.09 70.144C1323.73 70.144 1323.06 69.22 1323.06 68.128ZM1332.97 68.128C1332.97 67.12 1333.89 66.448 1334.4 66.448C1334.82 66.448 1335.99 66.868 1336.33 67.624H1362.28C1368.75 67.036 1371.1 63.928 1371.1 60.82C1371.1 56.956 1368.25 54.52 1364.05 54.52C1359.76 54.52 1357.33 57.46 1357.33 60.064C1357.33 62.668 1359.18 64.852 1361.95 64.852C1364.72 64.852 1366.74 63.256 1366.74 60.988C1366.74 58.636 1365.06 57.628 1363.71 57.628C1362.62 57.628 1361.95 58.048 1361.53 58.552C1361.7 58.384 1361.95 58.3 1362.37 58.3C1363.38 58.3 1364.3 59.224 1364.3 60.148C1364.3 61.408 1363.38 62.164 1362.37 62.164C1361.53 62.164 1360.18 61.156 1360.44 59.308C1360.52 58.216 1361.61 56.872 1363.71 56.872C1365.48 56.872 1367.49 58.3 1367.49 60.988C1367.49 63.844 1365.06 65.608 1361.95 65.608C1358.84 65.608 1356.66 63.004 1356.66 60.064C1356.66 56.452 1359.76 53.764 1364.05 53.764C1368.67 53.764 1371.94 56.62 1371.94 60.82C1371.94 63.508 1370.43 66.28 1366.32 67.624H1372.36C1372.78 66.868 1373.96 66.448 1374.38 66.448C1374.88 66.448 1375.72 67.12 1375.72 68.128C1375.72 68.884 1374.88 69.724 1374.38 69.724C1373.96 69.724 1372.78 69.136 1372.36 68.548H1336.33C1335.91 69.136 1334.82 69.724 1334.4 69.724C1333.89 69.724 1332.97 68.884 1332.97 68.128Z" fill="url(#paint0_linear_679_533)"/>
</g>
<defs>
<filter id="filter0_d_679_533" x="0.301416" y="0.255981" width="1385.32" height="98.92" filterUnits="userSpaceOnUse" color-interpolation-filters="sRGB">
<feFlood flood-opacity="0" result="BackgroundImageFix"/>
<feColorMatrix in="SourceAlpha" type="matrix" values="0 0 0 0 0 0 0 0 0 0 0 0 0 0 0 0 0 0 127 0" result="hardAlpha"/>
<feOffset dy="13"/>
<feGaussianBlur stdDeviation="4.95"/>
<feComposite in2="hardAlpha" operator="out"/>
<feColorMatrix type="matrix" values="0 0 0 0 0 0 0 0 0 0 0 0 0 0 0 0 0 0 0.5 0"/>
<feBlend mode="normal" in2="BackgroundImageFix" result="effect1_dropShadow_679_533"/>
<feBlend mode="normal" in="SourceGraphic" in2="effect1_dropShadow_679_533" result="shape"/>
</filter>
<linearGradient id="paint0_linear_679_533" x1="648.442" y1="-8.5" x2="648.89" y2="80.0006" gradientUnits="userSpaceOnUse">
<stop stop-color="#DEA55C"/>
<stop offset="1" stop-color="#624C2F"/>
</linearGradient>
</defs>
</svg>
