<svg width="1341" height="104" viewBox="0 0 1341 104" fill="none" xmlns="http://www.w3.org/2000/svg">
<g filter="url(#filter0_d_678_5464)">
<path d="M10.8819 77.664C20.0979 77.664 21.6339 75.744 21.6339 66.144V15.648C21.6339 5.856 20.0979 3.936 10.8819 3.936V2.4H47.9379V3.936C38.7219 3.936 37.1859 5.856 37.1859 15.648V66.144C37.1859 75.744 38.7219 77.664 47.9379 77.664H85.0899C105.634 77.664 114.658 73.44 123.586 63.264H125.122V79.2H10.8819V77.664ZM51.2394 59.232C55.8474 59.232 56.6154 58.272 56.6154 53.472V28.224C56.6154 23.328 55.8474 22.368 51.2394 22.368V21.6H89.1594V32.544H88.3914C88.3914 26.688 84.7434 22.368 77.2554 22.368H69.7674C65.1594 22.368 64.3914 23.328 64.3914 28.224V39.936H70.4394C77.9274 39.936 80.1354 37.248 80.1354 31.488H80.9034V49.248H80.1354C80.1354 43.392 77.9274 40.8 70.4394 40.8H64.3914V53.472C64.3914 58.272 65.1594 59.232 69.7674 59.232H78.7914C86.2794 59.232 89.9274 55.008 89.9274 49.152H90.6954V60H51.2394V59.232ZM108.907 59.232C113.611 59.232 114.283 58.272 114.283 53.472V28.224C114.283 23.328 113.611 22.368 108.907 22.368H108.331C100.843 22.368 97.1949 28.512 97.1949 36.384H96.4269V21.6H140.011V36.384H139.243C139.243 28.512 135.595 22.368 128.107 22.368H127.531C122.923 22.368 122.155 23.328 122.155 28.224V53.472C122.155 58.272 122.923 59.232 127.531 59.232V60H108.907V59.232ZM187.998 77.664C197.406 77.664 198.75 75.744 198.75 66.144V11.808C198.75 5.856 197.406 3.936 187.998 3.936H186.846C171.87 3.936 164.574 6.62399 154.974 18.528H153.438V2.4H298.206V18.528H296.67C289.566 6.62399 279.774 3.936 264.798 3.936H225.246C216.03 3.936 214.494 5.856 214.494 11.808V66.144C214.494 75.744 216.03 77.664 225.246 77.664V79.2H187.998V77.664ZM228.896 59.232C233.504 59.232 234.272 58.272 234.272 53.472V28.224C234.272 23.328 233.504 22.368 228.896 22.368V21.6H247.424V22.368C242.816 22.368 242.048 23.328 242.048 28.224V39.648H247.616C250.304 39.072 251.936 38.016 252.8 36.576C253.376 38.112 255.104 39.072 257.792 39.648H262.88V28.224C262.88 23.328 262.112 22.368 257.504 22.368V21.6H276.032V22.368C271.424 22.368 270.656 23.328 270.656 28.224V53.472C270.656 58.272 271.424 59.232 276.032 59.232V60H257.504V59.232C262.112 59.232 262.88 58.272 262.88 53.472V40.416H257.696C254.912 40.992 253.28 42.048 252.8 43.392C251.84 41.952 249.92 40.992 247.424 40.416H242.048V53.472C242.048 58.272 242.816 59.232 247.424 59.232V60H228.896V59.232ZM281.771 59.232C286.379 59.232 287.147 58.272 287.147 53.472V28.224C287.147 23.328 286.379 22.368 281.771 22.368V21.6H319.691V32.544H318.923C318.923 26.688 315.275 22.368 307.787 22.368H300.299C295.691 22.368 294.923 23.328 294.923 28.224V39.936H300.971C308.459 39.936 310.667 37.248 310.667 31.488H311.435V49.248H310.667C310.667 43.392 308.459 40.8 300.971 40.8H294.923V53.472C294.923 58.272 295.691 59.232 300.299 59.232H309.323C316.811 59.232 320.459 55.008 320.459 49.152H321.227V60H281.771V59.232ZM384.193 80.736C362.113 80.736 344.257 62.688 344.257 40.608C344.257 18.528 362.113 0.863995 384.193 0.863995C400.129 0.863995 408.577 8.352 415.297 8.352C418.177 8.352 420.289 6.62399 421.441 3.552H422.977V38.112H421.441C415.105 14.496 400.129 2.4 384.193 2.4C367.489 2.4 361.537 12 361.537 40.608C361.537 69.408 367.489 79.2 384.193 79.2C399.937 79.2 407.041 68.064 407.041 55.008C407.041 45.408 405.505 43.488 396.289 43.488V41.952H433.345V43.488C424.129 43.488 422.593 45.408 422.593 55.008V66.144C422.593 75.744 424.129 77.664 433.345 77.664H482.305C504.289 77.28 506.113 67.008 500.449 63.936L501.313 63.072C509.089 64.224 511.201 69.696 508.705 73.44C507.553 75.168 505.249 76.608 500.929 77.664C508.033 77.664 513.793 77.664 516.961 77.472C519.745 77.28 520.705 76.512 521.089 74.976C523.201 74.976 524.353 76.32 525.601 77.76C524.641 79.2 523.489 80.736 521.089 80.736C520.705 79.2 520.033 78.432 517.249 78.624C512.065 78.912 499.393 79.2 485.473 79.2H426.817C419.713 79.2 414.913 74.784 412.609 68.832C405.313 76.128 395.329 80.736 384.193 80.736ZM437.208 59.232C441.816 59.232 442.584 58.272 442.584 53.472V28.224C442.584 23.328 441.816 22.368 437.208 22.368V21.6H455.832C466.776 21.6 476.472 22.56 476.472 31.488C476.472 38.112 471.192 40.416 464.088 41.184C471.576 42.144 475.224 44.928 476.28 51.264C477.432 58.56 480.984 61.056 484.152 59.328L484.536 60C475.992 67.104 468.696 62.88 468.696 53.184C468.696 42.912 464.088 41.568 455.832 41.568H450.36V53.472C450.36 58.272 451.128 59.232 455.736 59.232V60H437.208V59.232ZM450.36 40.8H455.832C464.088 40.8 467.928 38.784 467.928 31.488C467.928 24.096 464.088 22.368 455.832 22.368H455.736C451.128 22.368 450.36 23.328 450.36 28.224V40.8ZM484.578 59.232C491.106 59.232 493.122 55.104 494.85 51.072L504.93 28.224C506.274 24.384 505.506 22.368 501.378 22.368V21.6H518.658V22.368C514.626 22.368 515.298 24.384 516.642 28.224L527.394 53.472C529.122 57.504 530.85 59.232 533.922 59.232V60H515.97V59.232C520.962 59.232 520.578 57.408 518.946 53.472L517.026 48.864H512.322C509.538 49.44 507.906 50.496 507.426 51.84C506.562 50.4 504.642 49.44 502.242 48.864H496.674L495.714 51.072C493.026 57.312 496.002 59.232 502.242 59.232V60H484.578V59.232ZM497.058 48H502.722C505.122 47.424 506.658 46.368 507.426 45.024C507.906 46.464 509.538 47.424 511.938 48H516.642L508.194 28.224C507.714 27.168 507.426 26.208 507.042 25.536C506.658 26.208 506.274 27.168 505.794 28.224L497.058 48ZM536.771 59.232C541.379 59.232 542.915 55.968 542.915 51.168V28.224C542.915 23.328 542.147 22.368 537.539 22.368V21.6H550.307L576.611 50.496V28.992C576.611 24.096 572.771 22.368 568.163 22.368V21.6H584.387V22.368C579.779 22.368 577.475 24.096 577.475 28.992V60H574.595L543.779 26.688V51.168C543.779 55.968 545.507 59.232 552.227 59.232V60H536.771V59.232ZM590.114 59.232C594.722 59.232 595.49 58.272 595.49 53.472V28.224C595.49 23.328 594.722 22.368 590.114 22.368V21.6H609.986C623.138 21.6 633.026 29.664 633.026 40.704C633.026 51.744 623.138 60 609.986 60H590.114V59.232ZM603.266 53.472C603.266 58.272 604.034 59.232 608.642 59.232H609.986C620.45 59.232 624.482 55.104 624.482 40.704C624.482 26.4 620.45 22.368 609.986 22.368H608.642C604.034 22.368 603.266 23.328 603.266 28.224V53.472ZM697.541 80.736C681.605 80.736 669.701 73.44 663.749 73.44C660.869 73.44 658.757 74.976 657.605 78.24H656.069V43.488H657.605C663.941 67.296 681.797 79.2 697.541 79.2C710.597 79.2 716.357 72.672 716.357 63.264C716.357 54.432 709.637 46.752 686.981 43.488C668.645 40.8 660.677 33.12 660.677 22.368C660.677 10.08 672.581 2.4 699.845 2.4H876.485C890.405 2.4 903.077 2.688 908.261 2.976C911.045 3.168 911.717 2.4 912.101 0.863995C914.501 0.863995 915.653 2.4 916.613 3.84C915.365 5.27999 914.213 6.62399 912.101 6.62399C911.717 5.088 910.757 4.32 907.973 4.128C904.805 3.936 899.045 3.936 891.941 3.936C896.261 4.992 898.565 6.432 899.717 8.16C902.213 11.904 900.101 17.376 892.325 18.528L891.461 17.664C897.125 14.592 895.301 4.32 873.317 3.936H699.845C680.261 3.936 671.429 8.064 671.429 16.224C671.429 22.176 675.557 26.304 693.797 28.608C712.037 31.008 725.285 40.32 726.725 54.816C728.165 69.6 716.357 80.736 697.541 80.736ZM743.032 59.232C747.736 59.232 748.408 58.272 748.408 53.472V28.224C748.408 23.328 747.736 22.368 743.032 22.368H742.456C734.968 22.368 731.32 28.512 731.32 36.384H730.552V21.6H774.136V36.384H773.368C773.368 28.512 769.72 22.368 762.232 22.368H761.656C757.048 22.368 756.28 23.328 756.28 28.224V53.472C756.28 58.272 757.048 59.232 761.656 59.232V60H743.032V59.232ZM799.877 60.768C788.837 60.768 779.909 51.744 779.909 40.704C779.909 29.664 788.837 20.832 799.877 20.832C810.917 20.832 819.845 29.664 819.845 40.704C819.845 51.744 810.917 60.768 799.877 60.768ZM788.453 40.704C788.453 55.104 791.525 60 799.877 60C808.229 60 811.205 55.104 811.205 40.704C811.205 26.4 808.229 21.6 799.877 21.6C791.525 21.6 788.453 26.4 788.453 40.704ZM825.614 59.232C830.222 59.232 830.99 58.272 830.99 53.472V28.224C830.99 23.328 830.222 22.368 825.614 22.368V21.6H844.238C855.182 21.6 864.878 22.56 864.878 31.488C864.878 38.112 859.598 40.416 852.494 41.184C859.982 42.144 863.63 44.928 864.686 51.264C865.838 58.56 869.39 61.056 872.558 59.328L872.942 60C864.398 67.104 857.102 62.88 857.102 53.184C857.102 42.912 852.494 41.568 844.238 41.568H838.766V53.472C838.766 58.272 839.534 59.232 844.142 59.232V60H825.614V59.232ZM838.766 40.8H844.238C852.494 40.8 856.334 38.784 856.334 31.488C856.334 24.096 852.494 22.368 844.238 22.368H844.142C839.534 22.368 838.766 23.328 838.766 28.224V40.8ZM889.304 59.232C893.912 59.232 894.68 58.272 894.68 53.472V44.16L883.064 28.224C880.088 24.192 877.976 22.368 873.944 22.368V21.6H894.2V22.368C890.168 22.368 889.304 24.288 892.184 28.224L901.976 41.568L910.328 29.76C914.36 24 913.208 22.368 906.872 22.368V21.6H924.152V22.368C919.64 22.368 915.416 24.192 911.48 29.856L902.456 42.624V53.472C902.456 58.272 903.224 59.232 907.832 59.232V60H889.304V59.232ZM992.328 80.736C965.256 80.736 953.16 68.064 953.16 46.368V15.648C953.16 5.856 951.624 3.936 942.408 3.936V2.4H979.464V3.936C970.248 3.936 968.712 5.856 968.712 15.648V48.096C968.712 68.832 975.336 79.2 991.56 79.2C1007.78 79.2 1018.25 67.968 1018.25 49.536V21.792C1018.25 7.96799 1012.3 3.936 1002.89 3.936V2.4H1081.7C1082.09 2.112 1082.66 1.72799 1082.95 1.248C1083.82 2.112 1084.87 2.784 1087.75 2.784H1136.04L1133.83 4.32C1132.3 3.648 1125.77 3.648 1120.87 4.32C1114.82 5.184 1108.97 7.584 1106.18 10.944C1102.25 6.432 1094.76 3.84 1087.46 3.84C1093.32 5.376 1096.68 8.256 1096.68 11.808C1096.68 15.648 1094.38 18.432 1089.96 18.432C1085.45 18.432 1082.66 14.016 1084.87 11.328C1085.26 12.48 1086.41 13.248 1088.04 13.152C1089.96 13.056 1091.21 11.424 1090.63 9.12C1090.15 6.72 1087.18 3.936 1082.09 3.936H1032.46C1023.24 3.936 1020.17 7.96799 1020.17 21.792V49.92C1020.17 69.888 1007.88 80.736 992.328 80.736ZM1033.46 59.232C1038.07 59.232 1039.6 55.968 1039.6 51.168V28.224C1039.6 23.328 1038.83 22.368 1034.23 22.368V21.6H1046.99L1073.3 50.496V28.992C1073.3 24.096 1069.46 22.368 1064.85 22.368V21.6H1081.07V22.368C1076.47 22.368 1074.16 24.096 1074.16 28.992V60H1071.28L1040.47 26.688V51.168C1040.47 55.968 1042.19 59.232 1048.91 59.232V60H1033.46V59.232ZM1086.8 59.232C1091.41 59.232 1092.18 58.272 1092.18 53.472V28.224C1092.18 23.328 1091.41 22.368 1086.8 22.368V21.6H1123.19V32.544H1122.42C1122.42 26.688 1118.67 22.368 1111.28 22.368H1105.33C1100.72 22.368 1099.95 23.328 1099.95 28.224V41.856H1105.91C1113.39 41.856 1115.6 39.264 1115.6 33.408H1116.37V51.168H1115.6C1115.6 45.408 1113.49 42.72 1106 42.72H1099.95V53.472C1099.95 58.272 1100.72 59.232 1105.33 59.232V60H1086.8V59.232ZM1149 60.768C1137.96 60.768 1129.03 51.744 1129.03 40.704C1129.03 29.664 1137.96 20.832 1149 20.832C1160.04 20.832 1168.97 29.664 1168.97 40.704C1168.97 51.744 1160.04 60.768 1149 60.768ZM1137.58 40.704C1137.58 55.104 1140.65 60 1149 60C1157.35 60 1160.33 55.104 1160.33 40.704C1160.33 26.4 1157.35 21.6 1149 21.6C1140.65 21.6 1137.58 26.4 1137.58 40.704ZM1174.74 59.232C1179.35 59.232 1180.12 58.272 1180.12 53.472V28.224C1180.12 23.328 1179.35 22.368 1174.74 22.368V21.6H1193.27V22.368C1188.66 22.368 1187.89 23.328 1187.89 28.224V53.472C1187.89 58.272 1188.66 59.232 1193.27 59.232H1200.76C1208.24 59.232 1211.89 53.184 1211.89 45.312H1212.66V60H1174.74V59.232ZM1218.43 59.232C1223.03 59.232 1223.8 58.272 1223.8 53.472V28.224C1223.8 23.328 1223.03 22.368 1218.43 22.368V21.6H1238.3C1251.45 21.6 1261.34 29.664 1261.34 40.704C1261.34 51.744 1251.45 60 1238.3 60H1218.43V59.232ZM1231.58 53.472C1231.58 58.272 1232.35 59.232 1236.95 59.232H1238.3C1248.76 59.232 1252.79 55.104 1252.79 40.704C1252.79 26.4 1248.76 22.368 1238.3 22.368H1236.95C1232.35 22.368 1231.58 23.328 1231.58 28.224V53.472ZM1276.01 60C1272.17 60 1269 56.832 1269 52.992C1269 49.152 1272.17 45.984 1276.01 45.984C1279.85 45.984 1283.02 49.152 1283.02 52.992C1283.02 56.832 1279.85 60 1276.01 60ZM1299.64 60C1295.8 60 1292.63 56.832 1292.63 52.992C1292.63 49.152 1295.8 45.984 1299.64 45.984C1303.48 45.984 1306.64 49.152 1306.64 52.992C1306.64 56.832 1303.48 60 1299.64 60ZM1323.26 60C1319.42 60 1316.25 56.832 1316.25 52.992C1316.25 49.152 1319.42 45.984 1323.26 45.984C1327.1 45.984 1330.27 49.152 1330.27 52.992C1330.27 56.832 1327.1 60 1323.26 60Z" fill="url(#paint0_linear_678_5464)"/>
</g>
<defs>
<filter id="filter0_d_678_5464" x="0.981836" y="0.86377" width="1339.19" height="102.772" filterUnits="userSpaceOnUse" color-interpolation-filters="sRGB">
<feFlood flood-opacity="0" result="BackgroundImageFix"/>
<feColorMatrix in="SourceAlpha" type="matrix" values="0 0 0 0 0 0 0 0 0 0 0 0 0 0 0 0 0 0 127 0" result="hardAlpha"/>
<feOffset dy="13"/>
<feGaussianBlur stdDeviation="4.95"/>
<feComposite in2="hardAlpha" operator="out"/>
<feColorMatrix type="matrix" values="0 0 0 0 0 0 0 0 0 0 0 0 0 0 0 0 0 0 0.5 0"/>
<feBlend mode="normal" in2="BackgroundImageFix" result="effect1_dropShadow_678_5464"/>
<feBlend mode="normal" in="SourceGraphic" in2="effect1_dropShadow_678_5464" result="shape"/>
</filter>
<linearGradient id="paint0_linear_678_5464" x1="671.971" y1="2.17355" x2="672.232" y2="68.0011" gradientUnits="userSpaceOnUse">
<stop stop-color="#DEA55C"/>
<stop offset="1" stop-color="#624C2F"/>
</linearGradient>
</defs>
</svg>
