<svg width="517" height="358" viewBox="0 0 517 358" fill="none" xmlns="http://www.w3.org/2000/svg">
<path d="M303.461 15.1064C318.578 3.70675 358.923 -12.2527 399.367 15.1064C434.31 9.40659 506.572 3.65722 516.089 26.2577V131.828H492.299C459.091 148.432 389.554 197.55 377.064 261.189L391.189 344.456L344.352 357.838V319.179C334.935 291.175 303.907 234.128 255.137 229.965C202.599 222.778 90.8337 204.538 64.0694 189.074L53.6612 184.613L33.588 180.896L16.4884 174.205C0.875897 171.231 -17.5613 160.079 33.588 139.263C37.801 130.837 52.1747 113.837 75.9649 113.242C82.6561 109.773 97.079 99.5621 101.242 86.4775C115.616 75.5735 158.042 57.0374 212.76 70.122V49.3056C222.425 39.6407 254.096 19.2698 303.461 15.1064ZM291.566 131.086C305.94 137.034 326.062 151.456 291.566 161.567L267.775 186.101L263.316 204.687L264.802 213.609C289.088 227.487 340.039 259.851 349.556 278.289C350.795 244.09 345.541 166.771 314.613 131.086H291.566ZM360.707 127.368C359.716 138.024 354.611 162.013 342.121 172.719C349.308 187.092 363.978 217.771 365.168 225.504L405.315 179.41L377.807 127.368H360.707ZM183.766 177.18L178.562 189.818V209.148L238.781 215.096L206.813 174.206L183.766 177.18ZM125.033 186.101L131.724 200.971L171.127 209.148L155.515 183.128L125.033 186.101ZM238.781 167.515L242.498 189.818L248.446 209.148H255.881L259.598 186.101V167.515H238.781ZM91.5772 189.818L121.316 200.971L117.599 189.818H91.5772ZM161.462 180.153L171.127 197.996L174.844 177.18L161.462 180.153ZM214.99 170.489L232.09 186.101V170.489H214.99ZM267.775 165.284V174.206L277.441 165.284H267.775ZM407.545 127.368L403.084 151.159L415.723 174.206C427.866 164.293 451.26 141.048 447.691 127.368H407.545ZM322.048 129.599L338.404 159.337C346.136 158.741 352.53 139.263 354.76 129.599H322.048ZM458.1 129.599L441.744 154.133C450.666 147.442 468.508 133.167 468.508 129.599H458.1ZM383.755 127.368L397.137 144.468L400.11 127.368H383.755Z" fill="black"/>
</svg>
