<svg width="461" height="158" viewBox="0 0 461 158" fill="none" xmlns="http://www.w3.org/2000/svg">
<g filter="url(#filter0_i_685_83)">
<path d="M105.353 35.3613L186.719 21.4971L262.722 12.8879C276.529 12.2171 306.548 10.9648 316.164 11.3226C317.981 11.3902 318.881 11.4374 319.271 11.4687C321.006 11.4099 327.743 11.3226 349.635 11.3226C399.194 11.3226 383.291 11.7698 413.803 14.9005C444.315 18.0311 457.999 28.0938 459.478 30.7772C460.506 32.6405 460.374 36.2831 455.739 39.4586C450.696 49.4844 442.441 65.3763 443.205 72.9287C442.022 89.3868 444.068 100.582 445.239 104.123C448.876 116.161 456.483 140.259 457.814 140.349C459.146 140.438 459.478 145.157 459.478 147.504C459.417 148.846 456.779 152.29 446.719 155.331C431.481 157.567 420.152 157.083 416.392 156.561C403.447 156.3 378.779 153.43 383.66 144.038L390.653 129.503L363.874 127.379C340.266 126.298 289.313 124.785 274.372 127.379L248.668 129.28C233.627 130.286 202.289 132.701 197.259 134.311C190.972 136.324 168.412 137.665 131.612 144.821C94.8126 151.977 69.8482 152.424 54.4997 152.983C39.1512 153.542 4.01601 148.846 3.46125 146.834C2.90648 144.821 -1.1618 142.92 2.53664 137.33C6.23508 131.74 19.1796 123.578 20.8439 98.6445C23.9875 89.6999 25.4669 92.3832 24.9122 79.8608C24.3574 67.3383 24.1725 64.7667 22.5082 58.3937C20.8439 52.0206 11.5978 32.1189 10.6732 30.889C9.93351 29.9051 9.20022 28.3919 8.92603 27.7584C7.32972 25.5358 7.44137 22.8419 9.74859 19.5964C23.6177 12.8879 30.09 10.9872 40.2607 9.7573C41.4071 9.61867 42.5346 9.41897 43.6328 9.1718C43.9157 9.09674 44.2093 9.0266 44.5139 8.96194C45.8852 8.61738 47.2047 8.20241 48.4507 7.74476C54.1105 5.66606 58.2557 2.7069 58.8636 1.46622C58.8742 1.01802 58.8972 0.853675 58.9378 1.1481C58.9498 1.23521 58.9244 1.34212 58.8636 1.46622C58.8353 2.65198 58.8931 5.82448 58.9378 7.74476C63.1293 7.59569 72.2891 7.96839 75.3958 10.6518C75.6488 10.8703 75.8625 11.094 76.0406 11.3226C78.5962 14.6037 73.808 18.896 72.2522 23.2861C70.5879 27.982 70.0331 32.1936 69.8482 34.6904V37.1842C82.593 36.9646 95.2022 36.2295 105.353 35.3613Z" fill="url(#paint0_linear_685_83)"/>
</g>
<path d="M459.478 30.7772C457.999 28.0938 444.315 18.0311 413.803 14.9005C383.291 11.7698 399.194 11.3226 349.635 11.3226C300.076 11.3226 328.184 11.7698 316.164 11.3226C306.548 10.9648 276.529 12.2171 262.722 12.8879L186.719 21.4971L105.353 35.3613C95.2022 36.2295 82.593 36.9646 69.8482 37.1842M459.478 30.7772C460.958 33.4605 460.033 39.8336 446.719 43.1878C435.275 46.0707 385.447 46.0629 384.349 33.0133M459.478 30.7772C459.973 33.4606 442.096 61.9715 443.205 72.9287C442.022 89.3868 444.068 100.582 445.239 104.123C448.876 116.161 456.483 140.259 457.814 140.349C459.146 140.438 459.478 145.157 459.478 147.504C459.417 148.846 456.779 152.29 446.719 155.331C431.481 157.567 420.152 157.083 416.392 156.561C403.447 156.3 378.779 153.43 383.66 144.038M413.803 21.2735V18.5901C411.029 20.0436 405.962 22.6152 407.885 21.2735C409.808 19.9318 395.495 23.5469 388.099 25.5222C385.292 28.3975 384.169 30.8797 384.349 33.0133M413.803 21.2735C415.467 21.1244 419.942 21.1393 424.528 22.3916C430.261 23.9569 432.665 24.6277 435.808 28.0938C438.952 31.5598 421.015 35.4731 416.392 35.3613M413.803 21.2735C414.234 26.1558 415.356 35.8085 416.392 35.3613M416.392 35.3613C411.769 35.2495 403.077 34.1314 402.153 29.3237M58.9378 7.74476C58.8761 5.09864 58.7898 0.0747453 58.9378 1.1481C59.0698 2.10609 54.6766 5.45814 48.4507 7.74476C47.2046 8.20241 45.8852 8.61738 44.5139 8.96194M58.9378 7.74476C63.1293 7.59568 72.2891 7.96839 75.3958 10.6518C75.6488 10.8703 75.8625 11.094 76.0406 11.3226M58.9378 7.74476C58.5063 11.8816 58.0501 20.1554 59.6775 20.1554C61.3048 20.1554 60.3555 20.6613 59.6775 20.9142M383.66 144.038C386.529 138.521 390.653 129.503 390.653 129.503M383.66 144.038L390.653 129.503M384.349 33.0133C384.751 35.5178 388.496 47.1011 390.318 52.5797C390.749 55.524 392.204 65.7954 394.571 83.3268C397.53 105.241 395.68 109.043 394.571 116.534C394.571 116.534 392.668 124.694 390.653 129.503M390.653 129.503L363.874 127.379C340.265 126.298 289.313 124.785 274.372 127.379L248.668 129.28C233.627 130.286 202.289 132.701 197.259 134.311C190.972 136.324 168.412 137.665 131.612 144.821C94.8126 151.977 69.8482 152.424 54.4997 152.983C39.1512 153.542 4.01601 148.846 3.46125 146.834C2.90648 144.821 -1.1618 142.92 2.53664 137.33C6.23508 131.74 19.1796 123.578 20.8439 98.6445C23.9875 89.6999 25.4669 92.3832 24.9122 79.8608C24.3574 67.3383 24.1725 64.7667 22.5082 58.3937C20.8439 52.0206 11.5978 32.1189 10.6732 30.889C9.93351 29.9051 9.20022 28.3919 8.92603 27.7584M8.92603 27.7584C7.32972 25.5358 7.44137 22.8419 9.74859 19.5964C23.6177 12.8879 30.09 10.9872 40.2607 9.7573C41.7159 9.58132 43.1409 9.30693 44.5139 8.96194M8.92603 27.7584C12.4589 32.6773 24.3574 35.2877 39.3361 36.4602M76.0406 11.3226C78.5962 14.6037 73.808 18.896 72.2522 23.2861C70.5879 27.982 70.0331 32.1936 69.8482 34.6904V37.1842M76.0406 11.3226C76.9352 13.1488 76.4684 17.3602 67.4442 19.5964C64.8131 20.2483 62.1922 20.6692 59.6775 20.9142M44.5139 8.96194C38.7813 10.1791 36.9321 13.3352 36.9321 14.7887C36.9321 15.1022 37.0009 15.4417 37.1423 15.7949M37.1423 15.7949C37.6563 17.0792 39.1294 18.5441 41.74 19.5964C44.2923 20.6251 51.4107 21.7196 59.6775 20.9142M37.1423 15.7949L38.4115 20.1554C39.8292 22.6897 42.4797 27.8031 41.74 27.982C41.0004 28.1609 41.4318 31.4107 41.74 33.0133C41.2469 34.5286 40.0757 37.3393 39.3361 36.4602M39.3361 36.4602C48.7299 37.1955 59.3351 37.3653 69.8482 37.1842" stroke="#4D4230"/>
<g filter="url(#filter1_i_685_83)">
<path d="M190.609 65.9078C193.286 65.6735 195.757 66.0141 198.022 66.9296C200.282 67.8025 202.13 69.3327 203.563 71.5201C205.039 73.7038 205.937 76.6233 206.257 80.2787L207.997 100.171L193.588 101.431L192.065 84.0258C191.875 81.8581 191.359 80.3614 190.516 79.5357C189.669 78.6676 188.587 78.2911 187.269 78.4064C186.292 78.4919 185.398 78.8056 184.589 79.3476C183.819 79.8433 183.223 80.6235 182.802 81.6882C182.424 82.7492 182.311 84.1511 182.463 85.8937L183.897 102.279L169.488 103.54L165.349 56.2325L179.758 54.9718L181.738 77.6054L178.039 74.9738C179.168 72.2195 180.823 70.0832 183.003 68.5647C185.226 67.0426 187.761 66.1569 190.609 65.9078ZM235.358 97.7769L234.817 91.5925L233.652 90.0241L232.625 78.2929C232.477 76.5927 231.832 75.3428 230.691 74.5432C229.593 73.7399 227.875 73.4405 225.537 73.645C223.965 73.7826 222.393 74.1771 220.822 74.8284C219.248 75.4373 217.924 76.2169 216.851 77.1674L211.43 68.0693C213.358 66.6157 215.717 65.4243 218.505 64.4951C221.293 63.5658 224.048 62.9822 226.768 62.7442C232.761 62.2199 237.511 63.1535 241.018 65.5449C244.568 67.9326 246.597 72.038 247.107 77.8611L248.747 96.6055L235.358 97.7769ZM225.531 99.279C222.684 99.5282 220.261 99.2476 218.262 98.4374C216.264 97.6271 214.706 96.4572 213.587 94.9275C212.464 93.3554 211.815 91.5705 211.641 89.5728C211.443 87.32 211.85 85.3571 212.86 83.6841C213.87 82.011 215.509 80.6684 217.776 79.6563C220.085 78.6405 223.046 77.9745 226.659 77.6585L233.928 77.0226L234.536 83.972L229.563 84.4071C228.032 84.541 226.928 84.8946 226.25 85.4678C225.611 85.9949 225.334 86.7472 225.42 87.7248C225.491 88.5324 225.848 89.1864 226.491 89.6869C227.173 90.1412 228.046 90.3218 229.108 90.2289C230.086 90.1433 230.956 89.8102 231.719 89.2295C232.521 88.6026 233.063 87.6986 233.345 86.5175L235.568 90.6274C235.242 93.2685 234.242 95.3047 232.569 96.736C230.895 98.1674 228.549 99.015 225.531 99.279ZM271.861 95.2257C267.058 95.6459 263.218 94.8255 260.339 92.7646C257.457 90.6611 255.806 87.2079 255.385 82.4049L252.831 53.2044L267.24 51.9438L269.783 81.0168C269.876 82.0794 270.225 82.884 270.83 83.4307C271.477 83.9737 272.225 84.2081 273.075 84.1337C274.308 84.0258 275.364 83.6122 276.243 82.8929L280.562 92.6014C279.512 93.3357 278.215 93.9204 276.668 94.3555C275.164 94.7869 273.562 95.0769 271.861 95.2257ZM249.823 73.8973L248.902 63.3775L275.234 61.0738L276.154 71.5936L249.823 73.8973Z" fill="#574537"/>
</g>
<g filter="url(#filter2_i_685_83)">
<path d="M108.797 116.213L85.4597 75.3721L100.672 72.1387L119.867 106.728L112.229 108.351L116.385 68.7988L129.969 65.9113L149.039 100.527L141.715 102.084L145.682 62.5714L159.705 59.5908L154.997 106.392L139.159 109.759L123.578 81.4026L127.835 80.4978L124.635 112.846L108.797 116.213Z" fill="#574537"/>
</g>
<g filter="url(#filter3_i_685_83)">
<path d="M297.08 95.1085L299.425 50.3699L314.508 51.1603L312.164 95.8989L297.08 95.1085ZM332.621 97.612C329.639 97.4556 326.715 96.982 323.851 96.191C320.988 95.4001 318.688 94.4464 316.952 93.33L321.413 84.0148C323.024 85.0818 324.901 85.9493 327.045 86.617C329.231 87.2871 331.369 87.6768 333.456 87.7862C335.203 87.8778 336.383 87.79 336.995 87.523C337.65 87.2583 337.991 86.8703 338.017 86.359C338.044 85.8477 337.701 85.4665 336.988 85.2155C336.277 84.9219 335.328 84.6799 334.142 84.4896C332.956 84.2992 331.643 84.0809 330.203 83.8345C328.808 83.5478 327.396 83.1747 325.968 82.7153C324.539 82.2559 323.248 81.6115 322.095 80.782C320.943 79.9525 320.038 78.8797 319.38 77.5635C318.725 76.2047 318.45 74.524 318.555 72.5214C318.671 70.3058 319.436 68.3378 320.851 66.6175C322.308 64.8994 324.386 63.577 327.083 62.6502C329.826 61.6831 333.157 61.3022 337.077 61.5077C339.633 61.6416 342.177 62.01 344.709 62.6126C347.241 63.2153 349.398 64.0546 351.178 65.1307L346.717 74.4459C344.979 73.3721 343.245 72.619 341.516 72.1866C339.832 71.7138 338.244 71.4384 336.753 71.3602C334.92 71.2642 333.655 71.3687 332.955 71.6739C332.298 71.9813 331.958 72.348 331.936 72.7741C331.909 73.2854 332.251 73.6878 332.962 73.9814C333.673 74.275 334.622 74.517 335.808 74.7074C336.995 74.8977 338.285 75.1363 339.68 75.423C341.12 75.6693 342.532 76.0424 343.915 76.5422C345.344 77.0016 346.635 77.646 347.787 78.4755C348.94 79.3049 349.844 80.3991 350.499 81.7579C351.157 83.0741 351.433 84.7335 351.328 86.7361C351.218 88.8239 350.455 90.7493 349.038 92.5122C347.624 94.2325 345.545 95.5762 342.803 96.5434C340.063 97.4679 336.669 97.8241 332.621 97.612Z" fill="#574537"/>
</g>
<defs>
<filter id="filter0_i_685_83" x="0.5" y="0.5" width="460.002" height="161" filterUnits="userSpaceOnUse" color-interpolation-filters="sRGB">
<feFlood flood-opacity="0" result="BackgroundImageFix"/>
<feBlend mode="normal" in="SourceGraphic" in2="BackgroundImageFix" result="shape"/>
<feColorMatrix in="SourceAlpha" type="matrix" values="0 0 0 0 0 0 0 0 0 0 0 0 0 0 0 0 0 0 127 0" result="hardAlpha"/>
<feOffset dy="4"/>
<feGaussianBlur stdDeviation="2"/>
<feComposite in2="hardAlpha" operator="arithmetic" k2="-1" k3="1"/>
<feColorMatrix type="matrix" values="0 0 0 0 1 0 0 0 0 1 0 0 0 0 1 0 0 0 0.25 0"/>
<feBlend mode="normal" in2="shape" result="effect1_innerShadow_685_83"/>
</filter>
<filter id="filter1_i_685_83" x="165.349" y="46.5055" width="115.375" height="61.6719" filterUnits="userSpaceOnUse" color-interpolation-filters="sRGB">
<feFlood flood-opacity="0" result="BackgroundImageFix"/>
<feBlend mode="normal" in="SourceGraphic" in2="BackgroundImageFix" result="shape"/>
<feColorMatrix in="SourceAlpha" type="matrix" values="0 0 0 0 0 0 0 0 0 0 0 0 0 0 0 0 0 0 127 0" result="hardAlpha"/>
<feOffset dy="4"/>
<feGaussianBlur stdDeviation="2.95"/>
<feComposite in2="hardAlpha" operator="arithmetic" k2="-1" k3="1"/>
<feColorMatrix type="matrix" values="0 0 0 0 0 0 0 0 0 0 0 0 0 0 0 0 0 0 0.25 0"/>
<feBlend mode="normal" in2="shape" result="effect1_innerShadow_685_83"/>
</filter>
<filter id="filter2_i_685_83" x="85.4597" y="59.5908" width="83.5598" height="63.6023" filterUnits="userSpaceOnUse" color-interpolation-filters="sRGB">
<feFlood flood-opacity="0" result="BackgroundImageFix"/>
<feBlend mode="normal" in="SourceGraphic" in2="BackgroundImageFix" result="shape"/>
<feColorMatrix in="SourceAlpha" type="matrix" values="0 0 0 0 0 0 0 0 0 0 0 0 0 0 0 0 0 0 127 0" result="hardAlpha"/>
<feOffset dy="4"/>
<feGaussianBlur stdDeviation="2.95"/>
<feComposite in2="hardAlpha" operator="arithmetic" k2="-1" k3="1"/>
<feColorMatrix type="matrix" values="0 0 0 0 0 0 0 0 0 0 0 0 0 0 0 0 0 0 0.25 0"/>
<feBlend mode="normal" in2="shape" result="effect1_innerShadow_685_83"/>
</filter>
<filter id="filter3_i_685_83" x="297.047" y="50.3699" width="56.0396" height="52.1899" filterUnits="userSpaceOnUse" color-interpolation-filters="sRGB">
<feFlood flood-opacity="0" result="BackgroundImageFix"/>
<feBlend mode="normal" in="SourceGraphic" in2="BackgroundImageFix" result="shape"/>
<feColorMatrix in="SourceAlpha" type="matrix" values="0 0 0 0 0 0 0 0 0 0 0 0 0 0 0 0 0 0 127 0" result="hardAlpha"/>
<feOffset dy="4"/>
<feGaussianBlur stdDeviation="2.95"/>
<feComposite in2="hardAlpha" operator="arithmetic" k2="-1" k3="1"/>
<feColorMatrix type="matrix" values="0 0 0 0 0 0 0 0 0 0 0 0 0 0 0 0 0 0 0.25 0"/>
<feBlend mode="normal" in2="shape" result="effect1_innerShadow_685_83"/>
</filter>
<linearGradient id="paint0_linear_685_83" x1="230.5" y1="1" x2="230.5" y2="157" gradientUnits="userSpaceOnUse">
<stop stop-color="#675739"/>
<stop offset="0.5" stop-color="#D6B3A2"/>
<stop offset="1" stop-color="#675739"/>
</linearGradient>
</defs>
</svg>
